<svg width="16" height="16" viewBox="0 0 16 16" fill="none" xmlns="http://www.w3.org/2000/svg">
<path fill-rule="evenodd" clip-rule="evenodd" d="M3.27736 8.00001C3.27736 7.48039 3.36361 6.98214 3.51773 6.51489L0.821495 4.45603C0.295998 5.5229 0 6.72514 0 8.00001C0 9.27387 0.295748 10.4752 0.82037 11.5415L3.5151 9.47862C3.36248 9.0135 3.27736 8.51713 3.27736 8.00001Z" fill="#FBBC05"/>
<path fill-rule="evenodd" clip-rule="evenodd" d="M8.01112 3.27273C9.13999 3.27273 10.1596 3.67273 10.9607 4.32723L13.2912 1.99999C11.8711 0.763621 10.0504 0 8.01112 0C4.84514 0 2.12415 1.81049 0.821284 4.45597L3.51739 6.51484C4.13864 4.6291 5.90951 3.27273 8.01112 3.27273Z" fill="#EA4335"/>
<path fill-rule="evenodd" clip-rule="evenodd" d="M8.01112 12.7273C5.90963 12.7273 4.13877 11.3709 3.51752 9.48518L0.821284 11.5437C2.12415 14.1895 4.84514 16 8.01112 16C9.96511 16 11.8307 15.3061 13.2308 14.0062L10.6716 12.0277C9.94948 12.4825 9.04011 12.7273 8.01112 12.7273Z" fill="#34A853"/>
<path fill-rule="evenodd" clip-rule="evenodd" d="M15.6583 8.00017C15.6583 7.52742 15.5854 7.0183 15.4761 6.54568H8.01118V9.63654H12.3082C12.0933 10.6904 11.5085 11.5005 10.6717 12.0278L13.2309 14.0063C14.7016 12.6413 15.6583 10.6078 15.6583 8.00017Z" fill="#4285F4"/>
</svg>
