<svg width="346" height="216" viewBox="0 0 346 216" fill="none" xmlns="http://www.w3.org/2000/svg">
<g clip-path="url(#clip0_1_4868)">
<path d="M266.904 59.5109C266.904 59.5109 268.234 70.0273 263.157 74.3789C257.573 79.1609 252.844 97.926 273.195 103.09C293.546 108.254 316.972 110.27 318.278 82.3569C319.486 56.4889 314.047 48.7527 307.819 42.6459C301.964 36.9018 266.904 59.5109 266.904 59.5109Z" fill="#352C38"/>
<path d="M269.854 69.679C269.854 69.679 270.463 78.184 277.749 76.9704C285.036 75.7568 275.627 66.338 269.854 69.679Z" fill="#F29083"/>
<path d="M312.229 62.1169C312.229 62.1169 317.601 68.7411 311.451 72.8364C305.3 76.9318 305.735 63.6255 312.229 62.1169Z" fill="#F29083"/>
<path d="M287.473 42.0365C287.473 42.0365 269.854 45.9868 271.372 61.4786C273.272 80.8192 286.844 91.2437 296.887 90.3347C306.93 89.4257 311.934 72.1884 309.642 58.4228C308.124 49.3279 302.356 40.2185 287.473 42.0365Z" fill="#FFAC9D"/>
<path d="M271.372 61.4785C271.372 61.4785 271.416 61.788 271.493 62.3682C271.532 62.6583 271.57 63.0161 271.643 63.4319L271.889 64.8825C271.996 65.4192 272.131 66.0042 272.271 66.6473C272.412 67.2904 272.6 67.977 272.823 68.6974C273.304 70.326 273.89 71.9217 274.578 73.4745C275.389 75.3064 276.36 77.0635 277.479 78.7255C278.724 80.5801 280.168 82.2923 281.787 83.8314C282.637 84.645 283.544 85.398 284.499 86.0845C285.469 86.7966 286.495 87.4304 287.565 87.9799C289.73 89.1312 292.104 89.835 294.547 90.0493C295.76 90.1671 296.984 90.092 298.173 89.8269C299.337 89.5325 300.434 89.0206 301.408 88.3184C303.3 86.886 304.847 85.0469 305.934 82.9369C306.992 80.972 307.835 78.8986 308.448 76.7527C308.995 74.8228 309.404 72.8564 309.671 70.8684C310.081 67.8859 310.195 64.8702 310.01 61.8653C309.976 61.319 309.937 60.8355 309.889 60.4148C309.84 59.9941 309.811 59.6315 309.768 59.3462C309.691 58.766 309.647 58.4566 309.647 58.4566C309.647 58.4566 309.7 58.7612 309.792 59.3414C309.845 59.6267 309.894 59.9845 309.947 60.4051C310 60.8258 310.063 61.3141 310.106 61.8557C310.213 62.9436 310.295 64.2732 310.295 65.7963C310.307 67.5059 310.21 69.2146 310.005 70.9119C309.772 72.9226 309.392 74.9135 308.869 76.8688C308.289 79.0635 307.459 81.1841 306.393 83.1883C305.276 85.3745 303.683 87.2827 301.732 88.7729C300.701 89.5265 299.536 90.0763 298.299 90.3926C297.054 90.6784 295.771 90.7649 294.499 90.6489C291.98 90.4132 289.535 89.6732 287.309 88.4731C286.215 87.9149 285.169 87.268 284.18 86.539C283.21 85.8341 282.291 85.0618 281.429 84.2278C279.789 82.64 278.34 80.8664 277.111 78.943C275.08 75.7994 273.562 72.3523 272.615 68.7312C272.412 68.0011 272.276 67.2807 272.131 66.657C271.986 66.0332 271.894 65.4143 271.802 64.8776C271.711 64.3409 271.653 63.8526 271.594 63.4271C271.536 63.0016 271.507 62.6486 271.474 62.3537L271.372 61.4785Z" fill="#D15A5A"/>
<path d="M285.882 44.9763C285.882 44.9763 290.799 66.6087 315.057 64.3169C315.057 64.3169 317.025 37.4384 294.078 38.0959C271.13 38.7535 262.939 47.2827 268.509 71.2021C268.509 71.2069 287.521 68.9054 285.882 44.9763Z" fill="#352C38"/>
<path d="M285.955 42.9504C285.955 42.9504 286.864 62.9969 306.301 66.338L285.955 42.9504Z" fill="#352C38"/>
<path d="M279.089 70.2063C279.089 70.2063 279.161 70.4045 279.302 70.7381C279.49 71.1957 279.703 71.6428 279.94 72.0775C280.249 72.6824 280.65 73.2355 281.129 73.7166C281.381 73.9627 281.685 74.148 282.019 74.2581C282.356 74.3531 282.714 74.3413 283.044 74.2243H283.073H283.049L283.121 74.1904L283.291 74.1082C283.382 74.0647 283.484 74.026 283.571 73.9777C283.71 73.8817 283.842 73.7767 283.968 73.6634C284.099 73.5393 284.218 73.4015 284.32 73.2524C284.374 73.175 284.427 73.1074 284.475 73.03L284.596 72.7882C284.879 72.177 285.06 71.5237 285.133 70.8542C285.196 70.3635 285.229 69.8694 285.229 69.3746C285.229 69.012 285.229 68.8041 285.229 68.8041C285.283 68.9885 285.327 69.1757 285.36 69.365C285.457 69.8637 285.509 70.3702 285.515 70.8784C285.516 71.2232 285.49 71.5675 285.437 71.9082C285.384 72.2988 285.28 72.6808 285.128 73.0445L284.997 73.3298C284.949 73.4265 284.886 73.5135 284.828 73.6102C284.713 73.8005 284.574 73.9746 284.412 74.1276C284.24 74.2935 284.052 74.4425 283.851 74.5724C283.755 74.6256 283.663 74.6643 283.571 74.7078L283.431 74.7755L283.363 74.8093H283.324H283.281C282.823 74.9543 282.332 74.9543 281.874 74.8093C281.44 74.6737 281.046 74.4329 280.728 74.1082C280.236 73.5553 279.853 72.9137 279.601 72.2177C279.425 71.7454 279.285 71.2605 279.181 70.7671C279.108 70.4142 279.089 70.2063 279.089 70.2063Z" fill="#1C171E"/>
<path d="M295.224 67.0246L295.436 67.5564C295.572 67.8901 295.789 68.3591 296.075 68.8958C296.385 69.4997 296.786 70.0525 297.264 70.5349C297.518 70.7802 297.824 70.9652 298.159 71.0764C298.494 71.1714 298.85 71.1595 299.179 71.0426H299.213H299.188L299.261 71.0087L299.401 70.9459C299.493 70.9024 299.595 70.8637 299.677 70.8153C299.818 70.7205 299.952 70.6155 300.078 70.501C300.209 70.3756 300.327 70.238 300.431 70.09C300.479 70.0127 300.537 69.945 300.586 69.8676L300.707 69.6259C300.989 69.0146 301.171 68.3614 301.243 67.6918C301.306 67.2011 301.336 66.7069 301.335 66.2123C301.335 65.8496 301.335 65.6417 301.335 65.6417C301.389 65.8261 301.433 66.0134 301.466 66.2026C301.564 66.7011 301.614 67.2079 301.616 67.716C301.619 68.0607 301.595 68.405 301.543 68.7459C301.486 69.1347 301.381 69.5149 301.229 69.8773L301.103 70.1674C301.05 70.2593 300.992 70.3511 300.934 70.443C300.819 70.6349 300.679 70.8105 300.518 70.9652C300.346 71.1312 300.158 71.2801 299.957 71.41C299.861 71.4632 299.769 71.5019 299.677 71.5454L299.537 71.6131L299.464 71.647H299.421H299.382C298.924 71.7919 298.433 71.7919 297.975 71.647C297.551 71.4986 297.171 71.2478 296.868 70.9169C296.374 70.3652 295.991 69.7232 295.741 69.0263C295.56 68.5555 295.42 68.0703 295.32 67.5758C295.278 67.3939 295.246 67.2099 295.224 67.0246Z" fill="#1C171E"/>
<path d="M288.759 69.9305C288.71 70.9562 288.591 71.9772 288.401 72.9863C288.309 73.4699 288.213 73.9872 288.101 74.4852C287.99 74.9833 287.865 75.4813 287.734 75.9745L287.608 75.694C288.735 76.3758 289.847 77.072 290.925 77.8311C289.712 77.3186 288.532 76.7384 287.362 76.1437L287.202 76.0663L287.231 75.8681C287.313 75.3846 287.4 74.8575 287.507 74.3595C287.613 73.8615 287.719 73.3635 287.84 72.8655C288.08 71.8677 288.387 70.8872 288.759 69.9305Z" fill="#D15A5A"/>
<path d="M288.503 80.8289C288.503 80.8289 288.677 80.8869 288.986 80.9642C289.136 81.0078 289.32 81.0513 289.533 81.1045C289.746 81.1576 289.982 81.1963 290.239 81.2544C290.495 81.3124 290.78 81.3559 291.08 81.3849C291.38 81.4139 291.694 81.4478 292.023 81.4574C292.355 81.4743 292.687 81.4743 293.019 81.4574C293.188 81.4574 293.357 81.4139 293.502 81.3946C293.666 81.3786 293.827 81.3495 293.986 81.3075C294.318 81.2432 294.643 81.1427 294.953 81.0078C295.108 80.9401 295.267 80.8869 295.412 80.8192L295.828 80.5726C296.097 80.4192 296.348 80.2377 296.578 80.0311C296.689 79.9344 296.81 79.8522 296.906 79.7506L297.177 79.446C297.351 79.2773 297.513 79.0964 297.661 78.9045L297.985 78.421L298.275 78.0245L298.091 78.508C298.028 78.6531 297.951 78.832 297.859 79.035C297.746 79.2576 297.613 79.4696 297.462 79.6684L297.221 80.0262C297.123 80.1472 297.017 80.2603 296.902 80.3647C296.678 80.6171 296.421 80.8383 296.138 81.0223L295.693 81.3269C295.533 81.4139 295.364 81.4816 295.209 81.559C294.868 81.7117 294.511 81.8284 294.146 81.9071C293.963 81.9526 293.777 81.9817 293.589 81.9941C293.406 81.9941 293.222 82.0473 293.038 82.0521C292.682 82.0599 292.325 82.0453 291.97 82.0086C291.643 81.9802 291.32 81.9252 291.003 81.8442C290.693 81.7862 290.413 81.6798 290.152 81.6073C289.573 81.4154 289.019 81.154 288.503 80.8289Z" fill="#D15A5A"/>
<path d="M291.742 65.5838C291.723 65.3651 291.723 65.145 291.742 64.9262C291.791 64.3429 291.918 63.7689 292.12 63.2194C292.416 62.4062 292.88 61.6647 293.483 61.0436C293.847 60.6776 294.262 60.3665 294.716 60.1201C295.2 59.8674 295.72 59.6912 296.258 59.5979C296.786 59.523 297.322 59.523 297.849 59.5979C298.101 59.6269 298.35 59.677 298.594 59.7478C298.83 59.8061 299.061 59.882 299.285 59.975C299.501 60.0522 299.711 60.1443 299.914 60.2506C300.112 60.357 300.31 60.4489 300.484 60.5649L300.968 60.8986L301.408 61.2418C301.662 61.4458 301.901 61.6671 302.124 61.9043C302.298 62.078 302.459 62.2638 302.607 62.4603C302.873 62.7843 303.004 62.9825 303.004 62.9825C303.004 62.9825 302.767 62.9196 302.385 62.7746L301.703 62.528C301.442 62.4361 301.156 62.3201 300.842 62.2185L300.359 62.0493L299.841 61.8946C299.667 61.8366 299.488 61.7931 299.305 61.7495C299.123 61.6964 298.939 61.6528 298.753 61.619C298.382 61.5406 298.006 61.4905 297.627 61.4691C297.26 61.4461 296.892 61.4624 296.529 61.5175C296.178 61.5804 295.834 61.6809 295.504 61.8172C295.177 61.9625 294.864 62.1389 294.571 62.3443C294.008 62.7645 293.498 63.2516 293.053 63.7948C292.627 64.2783 292.303 64.7618 292.086 65.0713L291.742 65.5838Z" fill="#1C171E"/>
<path d="M286.525 66.4539L286.042 66.1638C285.742 65.9849 285.321 65.7383 284.823 65.4724C284.293 65.1765 283.74 64.9227 283.169 64.7133C282.879 64.609 282.579 64.5297 282.275 64.4764C281.987 64.423 281.693 64.4052 281.4 64.4232C281.111 64.4386 280.825 64.4905 280.549 64.5779C280.409 64.6214 280.273 64.6794 280.133 64.7278C279.993 64.7761 279.857 64.8583 279.727 64.9309C279.459 65.0789 279.2 65.2403 278.948 65.4144C278.712 65.6029 278.465 65.7722 278.257 65.9559C278.049 66.1396 277.836 66.2992 277.657 66.4394L277.174 66.8456C277.035 66.9737 276.89 67.0947 276.739 67.2082C276.765 67.0196 276.8 66.8324 276.845 66.6473C276.889 66.4342 276.952 66.2254 277.034 66.0236C277.121 65.7538 277.231 65.4917 277.362 65.2403C277.519 64.9344 277.7 64.6417 277.904 64.3652C278.15 64.0509 278.425 63.7611 278.726 63.4997C279.072 63.2103 279.458 62.9725 279.872 62.7937C280.766 62.4142 281.763 62.3545 282.696 62.6245C283.122 62.7432 283.53 62.9188 283.909 63.1467C284.54 63.5239 285.094 64.0159 285.544 64.5972C285.855 64.9923 286.116 65.4242 286.322 65.8834C286.406 66.0674 286.474 66.2583 286.525 66.4539Z" fill="#1C171E"/>
<path d="M255.682 111.696C255.682 111.696 264.182 155.029 272.687 154.623C281.192 154.217 275.105 114.128 275.105 114.128L255.682 111.696Z" fill="#F29083"/>
<path d="M255.682 111.696C255.682 111.696 264.182 155.029 272.687 154.623C281.192 154.217 275.105 114.128 275.105 114.128L255.682 111.696Z" stroke="#D15A5A" stroke-width="1.24" stroke-miterlimit="10"/>
<path d="M337.691 100.406C337.691 100.406 339.978 144.508 331.627 146.181C323.277 147.854 319.428 107.499 319.428 107.499L337.691 100.406Z" fill="#F29083"/>
<path d="M337.691 100.406C337.691 100.406 339.978 144.508 331.627 146.181C323.277 147.854 319.428 107.499 319.428 107.499L337.691 100.406Z" stroke="#D15A5A" stroke-width="1.24" stroke-miterlimit="10"/>
<path d="M279.171 137.618C279.171 137.618 250.011 165.56 252.036 215.778H336.274C336.274 215.778 348.846 159.888 325.337 129.514C301.829 99.1397 279.171 137.618 279.171 137.618Z" fill="#FC6A5A"/>
<path d="M296.418 152.766C305.967 155.493 315.816 157.055 325.651 158.365C329.592 158.892 333.643 159.376 337.739 159.729C335.771 148.84 332.009 138.15 325.332 129.514C301.843 99.1397 279.166 137.618 279.166 137.618C276.958 139.86 274.92 142.263 273.069 144.808C280.81 147.602 288.507 150.503 296.418 152.766Z" fill="#EA4134"/>
<path d="M279.171 137.618C279.171 137.618 250.011 165.56 252.036 215.778H336.274C336.274 215.778 348.846 159.888 325.337 129.514C301.829 99.1397 279.171 137.618 279.171 137.618Z" stroke="#A50000" stroke-width="0.92" stroke-miterlimit="10"/>
<path d="M254.463 90.6394L254.062 77.2751C254.062 77.2751 288.875 78.8948 293.749 93.0666C293.749 93.0666 309.947 74.843 328.562 71.6035L335.447 106.837L254.463 90.6394Z" fill="#FDDEC0"/>
<path d="M249.604 79.7023L288.077 87.8011L291.723 142.472L251.224 132.347L249.604 79.7023Z" fill="#0096C8"/>
<path d="M249.604 79.7023L288.077 87.8011L291.723 142.472L251.224 132.347L249.604 79.7023Z" stroke="#1B4268" stroke-width="0.5" stroke-miterlimit="10"/>
<path d="M336.729 74.7318L299.691 87.9172L303.414 142.583L342.187 127.12L336.729 74.7318Z" fill="#0096C8"/>
<path d="M336.729 74.7318L299.691 87.9172L303.414 142.583L342.187 127.12L336.729 74.7318Z" stroke="#1B4268" stroke-width="0.5" stroke-miterlimit="10"/>
<path d="M288.077 87.8012L301.04 87.395L304.28 145.31C304.28 145.31 296.582 148.144 289.697 144.904L288.077 87.8012Z" fill="#0096C8"/>
<path d="M288.077 87.8012L301.035 87.279H301.147V87.3902L302.046 101.862L302.926 116.338L304.594 145.291V145.538L304.367 145.62C303.766 145.826 303.154 145.999 302.534 146.137C301.92 146.282 301.301 146.398 300.682 146.5L299.744 146.621C299.43 146.664 299.116 146.679 298.777 146.708C298.439 146.737 298.149 146.746 297.81 146.756C297.472 146.766 297.177 146.78 296.843 146.756C296.51 146.732 296.215 146.756 295.876 146.756L294.909 146.679C294.595 146.679 294.285 146.592 293.971 146.553C293.657 146.514 293.343 146.461 293.038 146.384L292.11 146.171L291.205 145.89L290.751 145.745L290.311 145.562L289.576 145.185L289.407 145.117V144.919L289.025 130.64L288.686 116.362L288.367 102.084L288.077 87.8012ZM288.077 87.8012L288.609 102.074L289.093 116.348L289.576 130.621L290.002 144.894L289.827 144.629L290.674 144.977L291.094 145.151L291.534 145.286L292.405 145.557L293.299 145.76C293.594 145.832 293.899 145.876 294.198 145.919C294.498 145.963 294.803 146.021 295.107 146.036L296.021 146.108C296.331 146.108 296.635 146.108 296.94 146.108C297.245 146.108 297.554 146.108 297.859 146.108C298.163 146.108 298.473 146.108 298.777 146.06C299.082 146.011 299.391 146.011 299.691 145.973L300.605 145.847C301.209 145.75 301.814 145.634 302.408 145.489C303.002 145.359 303.588 145.198 304.164 145.006L303.951 145.334L302.379 116.372L301.664 101.886L300.948 87.4047L301.064 87.5111L288.077 87.8012Z" fill="#1B4268"/>
<path d="M245.514 104.598C245.514 104.598 244.353 96.8621 246.771 95.7887C249.188 94.7153 266.445 101.286 250.61 99.4586C250.61 99.4586 277.508 105.425 251.417 103.032C251.417 103.032 272.968 106.948 252.036 105.623C252.036 105.623 268.959 109.685 251.045 107.79L250.349 113.302C250.349 113.302 248.226 114.684 245.514 104.598Z" fill="#FFAC9D"/>
<path d="M245.513 104.598C245.331 103.467 245.216 102.325 245.17 101.18C245.105 100.029 245.183 98.8741 245.402 97.7422C245.507 97.1552 245.747 96.6006 246.103 96.1225C246.298 95.8744 246.56 95.688 246.858 95.5858C247.155 95.5127 247.461 95.4834 247.767 95.4987C248.924 95.5742 250.07 95.7736 251.185 96.0934C252.298 96.3907 253.394 96.749 254.468 97.1668C255.011 97.3749 255.542 97.6122 256.059 97.8776C256.324 98.016 256.58 98.1694 256.828 98.3369C256.959 98.4253 257.082 98.5257 257.195 98.6367C257.347 98.7732 257.452 98.9543 257.495 99.1541C257.504 99.225 257.499 99.2971 257.48 99.366C257.461 99.4349 257.428 99.4993 257.384 99.5554C257.316 99.6437 257.231 99.7162 257.132 99.7682C256.98 99.8461 256.817 99.9031 256.649 99.9374C256.354 99.9984 256.055 100.039 255.754 100.058C255.164 100.092 254.584 100.087 254.009 100.058C252.853 100.02 251.707 99.9035 250.566 99.7778L250.677 99.1348C252.665 99.5796 254.642 100.049 256.615 100.556C257.582 100.813 258.588 101.078 259.569 101.373C260.053 101.518 260.536 101.673 261.02 101.857C261.516 102.024 262.001 102.224 262.47 102.456C262.605 102.525 262.733 102.606 262.852 102.698L262.954 102.79C262.995 102.835 263.032 102.884 263.065 102.935C263.109 103.017 263.136 103.108 263.142 103.201C263.143 103.313 263.107 103.421 263.041 103.511C262.902 103.67 262.712 103.777 262.504 103.815C262.354 103.854 262.219 103.873 262.084 103.897C261.563 103.955 261.04 103.983 260.517 103.98C259.487 103.98 258.467 103.941 257.447 103.883C255.411 103.757 253.385 103.583 251.359 103.399L251.451 102.703C253.047 103.003 254.633 103.322 256.214 103.67C257.007 103.844 257.8 104.028 258.588 104.231C258.979 104.333 259.371 104.444 259.767 104.56C260.172 104.676 260.568 104.822 260.952 104.995C261.071 105.049 261.181 105.119 261.281 105.203C261.385 105.287 261.453 105.408 261.469 105.541C261.469 105.624 261.448 105.705 261.407 105.777C261.366 105.849 261.308 105.909 261.237 105.952C261.013 106.059 260.77 106.123 260.522 106.141C260.096 106.184 259.69 106.194 259.279 106.204C258.462 106.204 257.65 106.204 256.862 106.155C255.237 106.088 253.622 105.981 252.026 105.865L252.094 105.382C253.395 105.715 254.681 106.064 255.962 106.45C256.6 106.644 257.239 106.847 257.872 107.084C258.186 107.2 258.501 107.325 258.81 107.475C258.984 107.548 259.146 107.644 259.294 107.761C259.339 107.8 259.377 107.848 259.405 107.901C259.431 107.94 259.445 107.987 259.445 108.034C259.445 108.081 259.431 108.127 259.405 108.167C259.325 108.252 259.22 108.308 259.105 108.326C258.765 108.389 258.42 108.417 258.075 108.409C257.737 108.409 257.403 108.409 257.069 108.38C256.402 108.341 255.735 108.288 255.068 108.23C253.738 108.109 252.413 107.944 251.088 107.78C252.42 107.896 253.751 107.994 255.082 108.075C255.745 108.114 256.412 108.147 257.079 108.162C257.408 108.162 257.742 108.162 258.046 108.162C258.371 108.164 258.696 108.13 259.013 108.06C259.064 108.052 259.112 108.033 259.153 108.002C259.153 108.002 259.153 108.046 259.153 108.036C259.153 108.027 259.153 108.007 259.11 107.988C258.985 107.897 258.851 107.82 258.709 107.761C258.409 107.627 258.102 107.509 257.79 107.408C257.161 107.2 256.523 107.016 255.885 106.832C254.604 106.474 253.308 106.151 252.017 105.865L252.089 105.382C253.699 105.469 255.314 105.541 256.924 105.58C257.732 105.58 258.534 105.58 259.342 105.58C259.743 105.58 260.14 105.546 260.522 105.498C260.677 105.485 260.83 105.45 260.976 105.396C260.952 105.418 260.934 105.445 260.922 105.475C260.911 105.506 260.906 105.538 260.909 105.57C260.909 105.686 260.957 105.677 260.938 105.667C260.877 105.626 260.814 105.589 260.749 105.556C260.394 105.402 260.029 105.273 259.656 105.169C259.274 105.058 258.887 104.951 258.501 104.855C257.722 104.656 256.939 104.482 256.151 104.308C254.575 103.97 252.989 103.66 251.403 103.375L251.499 102.679C253.52 102.853 255.542 103.017 257.567 103.129C258.578 103.177 259.589 103.216 260.589 103.22C261.074 103.222 261.558 103.199 262.04 103.153C262.151 103.138 262.26 103.117 262.369 103.09C262.461 103.09 262.572 102.998 262.499 103.066C262.499 103.066 262.446 103.148 262.465 103.201C262.455 103.229 262.455 103.26 262.465 103.288L262.427 103.254C262.343 103.193 262.256 103.136 262.166 103.085C261.727 102.869 261.275 102.682 260.812 102.524C260.328 102.36 259.845 102.205 259.361 102.041C258.394 101.746 257.427 101.475 256.46 101.214C254.5 100.698 252.531 100.215 250.552 99.7633L250.663 99.1202C251.794 99.2556 252.926 99.3668 254.048 99.4297C254.608 99.4667 255.169 99.4748 255.73 99.4539C256.001 99.4451 256.271 99.416 256.538 99.3668C256.651 99.3438 256.761 99.3081 256.866 99.2605C256.895 99.2475 256.921 99.2295 256.944 99.2073C256.915 99.1302 256.868 99.0608 256.808 99.0042C256.716 98.9147 256.618 98.8323 256.513 98.7576C256.289 98.5991 256.055 98.4553 255.812 98.3273C255.317 98.059 254.807 97.8185 254.284 97.6068C253.236 97.1742 252.164 96.8013 251.074 96.4899C250.528 96.3352 249.976 96.195 249.42 96.0789C248.873 95.9566 248.317 95.8742 247.757 95.8323C247.492 95.8117 247.225 95.8263 246.964 95.8759C246.714 95.9517 246.492 96.0997 246.326 96.3014C245.986 96.7375 245.75 97.245 245.634 97.7857C245.389 98.8965 245.278 100.033 245.306 101.17C245.312 102.316 245.381 103.46 245.513 104.598Z" fill="#D15A5A"/>
<path d="M345.18 95.5471C345.18 95.5471 346.631 87.8689 344.266 86.694C341.902 85.519 324.389 91.4227 340.287 90.2139C340.287 90.2139 313.177 95.1313 339.32 93.7533C339.32 93.7533 317.63 96.8284 338.605 96.3159C338.605 96.3159 321.537 99.7005 339.509 98.5207L339.992 104.057C339.992 104.057 342.066 105.536 345.18 95.5471Z" fill="#FFAC9D"/>
<path d="M345.18 95.5469C345.356 94.4178 345.469 93.2798 345.519 92.1381C345.591 91.0061 345.524 89.8695 345.321 88.7535C345.228 88.2087 345.011 87.6925 344.687 87.245C344.528 87.0387 344.314 86.8826 344.068 86.7953C343.81 86.734 343.545 86.708 343.28 86.718C342.717 86.7409 342.157 86.8023 341.602 86.9017C341.046 86.9936 340.49 87.1144 339.939 87.2498C338.835 87.5193 337.747 87.8502 336.68 88.241C336.153 88.4393 335.626 88.652 335.128 88.8986C334.881 89.0185 334.642 89.1541 334.413 89.3048C334.307 89.3746 334.207 89.4522 334.113 89.5368C334.046 89.5887 333.995 89.6571 333.963 89.7351L334.04 89.7931C334.144 89.8471 334.254 89.8862 334.369 89.9091C334.631 89.9704 334.898 90.0109 335.167 90.03C335.727 90.0736 336.288 90.0881 336.849 90.0735C337.981 90.0735 339.122 89.9817 340.258 89.8946L340.345 90.5474C338.353 90.9197 336.361 91.3258 334.383 91.7658C333.416 91.9883 332.411 92.2203 331.434 92.4814C330.951 92.6072 330.467 92.7425 329.984 92.8924C329.514 93.0237 329.054 93.1852 328.606 93.3759C328.514 93.4219 328.425 93.4736 328.34 93.5307L328.301 93.5645C328.311 93.5524 328.318 93.5384 328.322 93.5234C328.326 93.5085 328.327 93.4929 328.325 93.4775C328.325 93.4243 328.296 93.3518 328.296 93.3421C328.296 93.3324 328.335 93.3421 328.427 93.3711C328.534 93.4042 328.644 93.4285 328.755 93.4436C329.236 93.5141 329.72 93.5577 330.206 93.5742C331.208 93.6032 332.217 93.6032 333.233 93.5742C335.254 93.5452 337.285 93.463 339.31 93.3663L339.378 94.0625C337.783 94.2898 336.187 94.546 334.601 94.812C333.808 94.9522 333.015 95.1021 332.232 95.2665C331.835 95.3487 331.449 95.4357 331.062 95.5372C330.685 95.6248 330.315 95.7396 329.955 95.8805C329.887 95.9071 329.824 95.9429 329.766 95.9869C329.766 95.9869 329.766 95.9869 329.795 95.8902C329.802 95.8575 329.8 95.8234 329.789 95.7917C329.778 95.7601 329.758 95.7322 329.732 95.7113C329.878 95.7693 330.031 95.8099 330.187 95.8322C330.564 95.895 330.96 95.9289 331.357 95.9579C332.154 96.0111 332.962 96.0353 333.774 96.0498C335.384 96.0788 336.999 96.0498 338.609 96.0498L338.663 96.5333C337.357 96.7847 336.052 97.0603 334.756 97.3698C334.113 97.5245 333.465 97.684 332.822 97.8533C332.506 97.942 332.194 98.0469 331.889 98.1676C331.744 98.2211 331.606 98.2909 331.478 98.3755L331.429 98.4238C331.429 98.4238 331.429 98.3948 331.429 98.39C331.47 98.421 331.516 98.444 331.565 98.4577C331.882 98.5338 332.206 98.5791 332.532 98.5931C332.86 98.6172 333.194 98.6269 333.528 98.6366C334.195 98.6366 334.857 98.6366 335.525 98.6366C336.859 98.6076 338.194 98.5608 339.528 98.4963C338.198 98.6124 336.869 98.7236 335.529 98.7913C334.862 98.8251 334.195 98.8542 333.528 98.8638C333.194 98.8638 332.856 98.8638 332.522 98.8638C332.177 98.8626 331.833 98.8237 331.497 98.7478C331.382 98.7258 331.279 98.6663 331.202 98.5785C331.176 98.5381 331.162 98.4911 331.162 98.4432C331.162 98.3952 331.176 98.3482 331.202 98.3078C331.233 98.2567 331.272 98.211 331.318 98.1724C331.469 98.0658 331.631 97.9766 331.802 97.9065C332.121 97.7662 332.435 97.655 332.769 97.5487C333.407 97.3407 334.05 97.157 334.703 96.9926C336.003 96.6542 337.304 96.3544 338.614 96.0788L338.667 96.5623C337.048 96.6155 335.433 96.659 333.808 96.6638C332.996 96.6638 332.188 96.6638 331.391 96.6155C330.98 96.5913 330.573 96.5671 330.148 96.5043C329.901 96.4766 329.662 96.4028 329.442 96.2867C329.373 96.2416 329.317 96.1797 329.279 96.1069C329.241 96.0342 329.222 95.9529 329.224 95.8709C329.233 95.8042 329.256 95.7401 329.291 95.6826C329.326 95.6252 329.372 95.5757 329.427 95.5372C329.53 95.4582 329.642 95.3932 329.761 95.3438C330.152 95.185 330.555 95.0557 330.965 94.957C331.362 94.8507 331.763 94.7588 332.159 94.6718C332.952 94.4977 333.75 94.3478 334.548 94.1882C336.143 93.8981 337.744 93.6354 339.349 93.4001L339.417 94.1012C337.381 94.2124 335.351 94.3091 333.31 94.3526C332.29 94.3526 331.27 94.3816 330.24 94.3526C329.717 94.3324 329.196 94.284 328.678 94.2076C328.543 94.1786 328.407 94.1544 328.262 94.1109C328.055 94.0622 327.87 93.9467 327.735 93.7821C327.672 93.6897 327.64 93.5797 327.643 93.4678C327.655 93.3753 327.687 93.2864 327.735 93.2067C327.77 93.1569 327.809 93.11 327.851 93.0665L327.958 92.9795C328.079 92.8916 328.209 92.8155 328.344 92.7522C328.825 92.5351 329.321 92.3541 329.829 92.2107C330.312 92.0608 330.796 91.9254 331.313 91.7997C332.28 91.5434 333.296 91.3162 334.292 91.0986C336.284 90.6634 338.281 90.2718 340.287 89.9091L340.369 90.5522C339.223 90.6344 338.073 90.7069 336.917 90.7021C336.342 90.7021 335.762 90.7021 335.176 90.6248C334.875 90.5959 334.576 90.5442 334.282 90.47C334.112 90.4313 333.949 90.3678 333.798 90.2815C333.7 90.227 333.616 90.1509 333.552 90.059C333.47 89.9405 333.437 89.795 333.46 89.6529C333.514 89.4629 333.626 89.2941 333.779 89.1694C333.898 89.064 334.026 88.9685 334.161 88.8841C334.413 88.7255 334.674 88.5833 334.944 88.4586C335.47 88.2132 336.01 87.9969 336.559 87.8107C337.649 87.4259 338.76 87.1031 339.886 86.8437C341.011 86.5606 342.164 86.3985 343.324 86.3602C343.629 86.3587 343.934 86.4011 344.228 86.4859C344.521 86.6012 344.776 86.7973 344.963 87.0516C345.299 87.5431 345.518 88.1057 345.601 88.6955C345.773 89.8365 345.806 90.9942 345.698 92.143C345.594 93.287 345.421 94.4237 345.18 95.5469Z" fill="#D15A5A"/>
<path d="M150.31 148.646L143.971 215.777H206.344L209.511 150.247L150.31 148.646Z" fill="#FDDEC0"/>
<path d="M208.612 168.848L209.511 150.247L150.31 148.646L148.473 168.098L208.612 168.848Z" fill="#EFC8A8"/>
<path d="M176.366 196.945L174.94 215.778H206.344L207.364 194.619L176.366 196.945Z" fill="#EFC8A8"/>
<path d="M202.37 194.861L189.378 196.045L182.884 196.635C180.718 196.833 178.533 197.036 176.386 197.172L176.594 196.964L175.143 215.792L174.766 215.763L176.154 196.906V196.713H176.347C178.513 196.505 180.699 196.355 182.85 196.229L189.359 195.779L202.37 194.861Z" fill="#C98D61"/>
<path d="M208.752 163.384L206.344 215.777" stroke="#C98D61" stroke-width="0.9" stroke-miterlimit="10"/>
<path d="M148.7 161.933L143.971 215.777" stroke="#C98D61" stroke-width="0.9" stroke-miterlimit="10"/>
<path d="M153.153 68.6734L165.531 67.4839C165.531 67.4839 161.46 9.4623 164.511 7.64913C167.562 5.83595 188.909 7.04957 192.259 16.7005C193.71 20.9554 202.312 58.7662 184.04 62.5859L184.223 68.4848C184.223 68.4848 191.157 68.243 196.901 68.2672C202.645 68.2914 194.484 83.0386 175.191 81.4865C155.899 79.9344 153.153 68.6734 153.153 68.6734Z" fill="#FFAC9D"/>
<path d="M196.896 68.2673C191.152 68.2673 184.219 68.4848 184.219 68.4848L184.035 62.586C171.908 62.4361 166.628 52.2001 164.172 43.2454C164.68 55.6137 165.531 67.4985 165.531 67.4985L153.153 68.6879C153.153 68.6879 155.899 79.9441 175.187 81.501C194.474 83.0579 202.64 68.3059 196.896 68.2673Z" fill="#F29083"/>
<path d="M164.569 35.3738C164.569 35.3738 161.039 30.4226 158.588 35.5382C155.44 42.1188 161.972 48.9654 166.396 43.9465C170.82 38.9276 164.569 35.3738 164.569 35.3738Z" fill="#FFAC9D"/>
<path d="M164.346 47.5874L164.646 52.5627C164.743 54.2212 164.839 55.8796 164.965 57.5332L165.313 62.5038C165.444 64.1622 165.56 65.8158 165.705 67.4694V67.6338H165.541L153.167 68.8716L153.361 68.6009C153.814 69.9733 154.502 71.2561 155.396 72.3916C156.282 73.5479 157.309 74.5891 158.452 75.4909C160.771 77.2767 163.391 78.6327 166.188 79.4944C167.584 79.9315 169.003 80.2899 170.439 80.5678C171.889 80.8338 173.34 81.0513 174.79 81.1674C177.704 81.4613 180.644 81.3523 183.527 80.8434C186.417 80.3418 189.198 79.344 191.747 77.894C193.013 77.1704 194.195 76.3094 195.272 75.3265C196.357 74.3614 197.268 73.2165 197.965 71.9419C198.308 71.3206 198.507 70.6297 198.545 69.9209C198.562 69.5784 198.469 69.2395 198.279 68.9538C198.074 68.6973 197.781 68.5252 197.457 68.4703C197.106 68.4103 196.749 68.3876 196.394 68.4026H195.291H193.081C190.132 68.4026 187.186 68.4429 184.243 68.5235H184.17V68.4655L183.837 62.5715H184.257V68.4703L184.199 68.4171C187.146 68.2979 190.092 68.2076 193.038 68.1464L195.248 68.1174H196.355C196.735 68.0915 197.116 68.111 197.491 68.1754C197.901 68.2453 198.271 68.4639 198.531 68.7894C198.762 69.1242 198.882 69.5235 198.874 69.9305C198.847 70.6989 198.642 71.4505 198.274 72.1257C197.574 73.452 196.646 74.645 195.533 75.6505C194.442 76.6662 193.242 77.558 191.955 78.3098C189.374 79.8064 186.551 80.839 183.614 81.3608C180.687 81.8863 177.701 82.0051 174.742 81.7138C173.262 81.5848 171.794 81.385 170.337 81.1142C168.878 80.8379 167.438 80.4713 166.024 80.0166C163.177 79.1228 160.513 77.7277 158.157 75.8971C156.988 74.9666 155.939 73.8947 155.034 72.7059C154.108 71.5153 153.398 70.1718 152.935 68.7363L152.863 68.4897H153.129L165.512 67.3389L165.362 67.5178C165.236 65.8593 165.139 64.2009 165.028 62.5424C164.917 60.884 164.844 59.2255 164.757 57.5671C164.67 55.9086 164.603 54.2454 164.535 52.5869L164.346 47.5874Z" fill="#D15A5A"/>
<path d="M158.413 10.2504C158.413 10.2504 155.411 -2.6497 148.211 0.947638C141.012 4.54498 150.324 12.9484 150.324 12.9484C150.324 12.9484 148.825 2.45137 144.624 10.2504C140.422 18.0495 156.01 20.148 158.413 10.2504Z" fill="#76413B"/>
<path d="M148.211 0.947638C144.827 2.64961 145.093 5.42014 146.335 7.87155C145.624 8.55649 145.04 9.36186 144.609 10.2504C140.412 18.0495 156.01 20.148 158.413 10.2504C158.413 10.2504 155.411 -2.6497 148.211 0.947638Z" stroke="#54201C" stroke-width="1.3" stroke-linecap="round" stroke-linejoin="round"/>
<path d="M195.509 38.4488C195.509 38.4488 195.91 47.447 193.512 48.8492C191.114 50.2514 196.51 41.0501 189.31 41.0501C182.111 41.0501 175.109 38.9468 174.113 42.7473C173.117 46.5477 174.597 51.6487 170.013 46.6492C167.354 43.7481 166.832 33.6524 166.865 25.6357C168.799 24.5043 171.164 21.8691 169.912 15.8494C169.912 15.8494 180.911 7.45077 192.26 16.7004C192.26 16.7004 191.109 2.19498 171.512 2.64948C154.106 3.0508 149.309 22.8507 159.11 34.2471C159.11 34.2471 161.919 32.2115 163.901 34.4067C163.582 42.7231 164.622 61.0966 179.809 62.9339C202.481 65.7093 197.312 49.2505 195.509 38.4488Z" fill="#965450"/>
<path d="M192.259 16.7006C192.259 16.7006 192.23 16.425 192.124 15.9221C191.967 15.1948 191.755 14.4804 191.491 13.785C191.087 12.7062 190.563 11.6762 189.929 10.7147C189.112 9.46851 188.121 8.34651 186.984 7.38326C186.335 6.83702 185.647 6.33927 184.924 5.89404C184.149 5.43166 183.341 5.02606 182.507 4.68042C180.683 3.96146 178.776 3.47414 176.83 3.22988C174.747 2.95217 172.642 2.88091 170.545 3.01713C168.386 3.13563 166.266 3.63148 164.278 4.48218C162.308 5.35008 160.531 6.6027 159.052 8.16655C157.632 9.70198 156.506 11.4851 155.73 13.4272C155.009 15.2491 154.558 17.1662 154.391 19.1181C154.241 20.8726 154.317 22.639 154.618 24.3739C154.881 25.843 155.287 27.2828 155.831 28.6724C155.962 28.977 156.088 29.2768 156.204 29.5669C156.32 29.857 156.475 30.1132 156.605 30.3743C156.842 30.9014 157.142 31.3414 157.374 31.762C157.757 32.3997 158.177 33.0148 158.631 33.6042L159.114 34.2279L158.607 33.6235C158.126 33.0515 157.68 32.4509 157.272 31.8249C157.026 31.4139 156.716 30.9739 156.455 30.4517L156.025 29.6491C155.899 29.3638 155.764 29.0688 155.624 28.7594C154.3 25.7159 153.722 22.4008 153.936 19.0891C154.064 17.0812 154.499 15.1047 155.227 13.2289C156.012 11.2192 157.159 9.3706 158.612 7.7749C160.137 6.13704 161.975 4.82173 164.017 3.9068C166.068 3.03054 168.256 2.51997 170.482 2.39823C172.619 2.27186 174.763 2.35608 176.884 2.64966C178.872 2.91982 180.816 3.4565 182.662 4.24526C183.515 4.61224 184.34 5.04382 185.128 5.53624C185.858 6.00465 186.553 6.52667 187.207 7.09799C188.345 8.10091 189.323 9.27159 190.108 10.5696C190.716 11.5636 191.21 12.6227 191.582 13.727C191.826 14.4326 192.012 15.1571 192.138 15.8931C192.193 16.1599 192.233 16.4295 192.259 16.7006Z" fill="#54201C"/>
<path d="M163.901 34.4067C163.901 34.4067 163.901 34.692 163.901 35.2384C163.901 35.7847 163.901 36.5777 163.901 37.5882C163.901 38.0959 163.935 38.652 163.955 39.2612C163.974 39.8704 164.022 40.5328 164.095 41.2339C164.223 42.8039 164.442 44.3651 164.752 45.9095C165.099 47.7362 165.61 49.5278 166.28 51.262C166.65 52.2055 167.076 53.1259 167.557 54.018C168.067 54.9387 168.645 55.8195 169.288 56.6532C170.633 58.3973 172.324 59.8457 174.253 60.9081C176.264 61.9727 178.477 62.6021 180.747 62.7551C183.014 63.0041 185.302 63.0041 187.569 62.7551C189.789 62.4843 191.96 61.8171 193.613 60.5019C195.195 59.205 196.28 57.4012 196.684 55.396C197.077 53.5884 197.213 51.7345 197.09 49.8888C197.008 48.1627 196.79 46.5864 196.606 45.1939C196.423 43.8014 196.205 42.5829 196.041 41.582C195.707 39.5851 195.557 38.4392 195.557 38.4392C195.557 38.4392 195.77 39.5755 196.186 41.5627C196.389 42.5297 196.635 43.7579 196.892 45.1504C197.178 46.7101 197.383 48.2836 197.506 49.8646C197.672 51.7516 197.573 53.6526 197.211 55.5121C196.997 56.5386 196.629 57.5266 196.118 58.4422C195.578 59.4056 194.857 60.256 193.995 60.9468C192.235 62.3635 189.953 63.0742 187.671 63.3643C185.355 63.6181 183.017 63.6035 180.704 63.3208C178.364 63.152 176.085 62.493 174.017 61.3868C172.023 60.2889 170.287 58.7771 168.925 56.9529C168.28 56.0894 167.701 55.1777 167.194 54.2259C166.717 53.3133 166.297 52.3718 165.937 51.407C165.288 49.6422 164.802 47.8213 164.487 45.9675C164.214 44.4048 164.033 42.8275 163.945 41.2436C163.892 40.5425 163.887 39.8801 163.863 39.266C163.839 38.652 163.863 38.0959 163.863 37.5882C163.863 36.5728 163.897 35.7799 163.93 35.2384C163.964 34.6968 163.901 34.4067 163.901 34.4067Z" fill="#54201C"/>
<path d="M185.21 27.5506C185.374 28.0583 185.515 28.5756 185.664 29.0882C185.814 29.6007 185.945 30.1181 186.085 30.6306C186.349 31.6653 186.602 32.7016 186.844 33.7396C187.328 35.8138 187.748 37.9026 188.121 40.0252L188.159 40.2573L187.937 40.2815C186.97 40.3734 186.003 40.4652 185.036 40.5426C184.069 40.62 183.102 40.707 182.135 40.7699C183.102 40.5958 184.069 40.4507 185.036 40.2863C186.003 40.122 186.97 39.9914 187.937 39.8512L187.758 40.1074C187.226 38.0428 186.757 35.9637 186.332 33.875C186.125 32.8306 185.929 31.783 185.742 30.7321C185.655 30.2051 185.563 29.6781 185.486 29.151C185.408 28.624 185.273 28.0825 185.21 27.5506Z" fill="#D15A5A"/>
<path d="M163.756 43.9659C163.446 43.8831 163.143 43.7731 162.852 43.6371C162.544 43.506 162.26 43.3247 162.011 43.1004C161.866 42.9672 161.772 42.7877 161.745 42.5927C161.739 42.4827 161.76 42.3729 161.808 42.2736C161.851 42.183 161.91 42.1011 161.982 42.0318C162.24 41.7957 162.545 41.6162 162.876 41.5048L162.726 41.674C162.882 40.6973 162.948 39.7085 162.925 38.7197C162.908 38.2391 162.843 37.7612 162.731 37.2934C162.639 36.8543 162.417 36.4532 162.093 36.1426C162.016 36.0737 161.929 36.0152 161.837 35.9686L161.769 35.9347C161.73 35.9347 161.769 35.9347 161.769 35.9347H161.726C161.669 35.9139 161.61 35.8962 161.552 35.8815C161.357 35.826 161.15 35.8362 160.962 35.9105C160.56 36.1261 160.238 36.4651 160.043 36.8776C159.807 37.3117 159.611 37.7665 159.458 38.2362C159.298 38.7125 159.162 39.1966 159.052 39.6868C159.072 39.1782 159.134 38.6721 159.235 38.1734C159.329 37.6641 159.481 37.1675 159.69 36.6938C159.8 36.4484 159.938 36.2164 160.101 36.0024C160.276 35.7718 160.501 35.5834 160.759 35.4512C161.044 35.3191 161.365 35.2835 161.672 35.3497C161.736 35.3639 161.799 35.3816 161.861 35.4028H161.905L161.972 35.4319L162.079 35.4754C162.212 35.5388 162.339 35.6166 162.456 35.7075C162.879 36.0934 163.174 36.5995 163.302 37.158C163.431 37.6703 163.5 38.1962 163.505 38.7246C163.518 39.7545 163.406 40.7822 163.171 41.7852L163.137 41.9158L163.021 41.9545C162.741 42.0321 162.476 42.1581 162.238 42.3268C162.193 42.3577 162.155 42.3979 162.127 42.4445C162.099 42.4912 162.08 42.5434 162.074 42.5975C162.086 42.7212 162.136 42.838 162.219 42.9312C162.419 43.1649 162.655 43.3642 162.92 43.521C163.19 43.6844 163.47 43.8329 163.756 43.9659Z" fill="#D15A5A"/>
<path d="M185.621 27.9519C185.68 27.3027 185.859 26.6701 186.148 26.0855C186.439 25.468 186.826 24.9002 187.294 24.4029C187.574 24.1088 187.887 23.8476 188.227 23.6245C188.597 23.3766 189.003 23.1859 189.431 23.0587C189.537 23.0201 189.653 23.0007 189.764 22.9717H189.808H189.89H189.958H190.093C190.19 22.9717 190.354 22.9717 190.485 22.9427H190.847C191.311 22.9909 191.76 23.1271 192.172 23.344C192.823 23.7068 193.364 24.2379 193.739 24.8816C193.988 25.3012 194.163 25.7609 194.256 26.2403C194.296 26.4197 194.315 26.6029 194.314 26.7866L193.879 26.4724C193.603 26.2886 193.236 26.0178 192.806 25.7519C192.373 25.4686 191.903 25.2488 191.408 25.0992C191.182 25.0353 190.947 25.0012 190.712 24.9976H190.538C190.49 24.9976 190.475 24.9976 190.393 24.9976H190.257H190.19C190.127 24.9976 190.059 24.9976 189.996 25.0412C189.731 25.1134 189.472 25.2089 189.223 25.3264C188.957 25.4558 188.699 25.5995 188.449 25.7568C187.968 26.0711 187.503 26.41 187.057 26.7721L185.621 27.9519Z" fill="#76413B"/>
<path d="M181.438 26.9123L180.902 26.598C180.568 26.4046 180.094 26.1145 179.543 25.8292C178.445 25.2442 176.99 24.5624 175.675 24.5914C175.349 24.596 175.024 24.6382 174.708 24.7172C174.543 24.7413 174.389 24.8187 174.224 24.8574C174.06 24.8961 173.91 24.9928 173.741 25.0459C173.572 25.0991 173.441 25.2055 173.286 25.278C173.132 25.3506 172.996 25.4569 172.846 25.5391C172.571 25.7277 172.29 25.9018 172.049 26.0952C171.807 26.2886 171.565 26.4578 171.362 26.6222C171.159 26.7866 170.965 26.9268 170.82 27.0525C170.521 27.304 170.337 27.4393 170.337 27.4393C170.377 27.2323 170.427 27.0273 170.487 26.8253C170.55 26.5917 170.633 26.3637 170.733 26.1435C170.787 26.013 170.849 25.8776 170.912 25.7325C170.975 25.5875 171.072 25.4473 171.159 25.2974C171.351 24.9668 171.573 24.6545 171.821 24.3642C171.962 24.2095 172.111 24.0596 172.266 23.8807C172.421 23.7018 172.614 23.5906 172.798 23.4455C173.203 23.1552 173.648 22.924 174.118 22.7589C174.619 22.5865 175.145 22.4936 175.675 22.4833C176.196 22.4885 176.713 22.5667 177.212 22.7154C177.674 22.8542 178.116 23.0508 178.528 23.3005C179.706 24.0148 180.649 25.0586 181.24 26.3031C181.323 26.5001 181.39 26.704 181.438 26.9123Z" fill="#76413B"/>
<path d="M175.327 31.8732C175.327 33.3237 174.892 34.5373 174.36 34.5325C173.828 34.5276 173.441 33.3334 173.451 31.8635C173.461 30.3936 173.886 29.1993 174.394 29.1993C174.901 29.1993 175.337 30.4033 175.327 31.8732Z" fill="#1C171E"/>
<path d="M189.871 32.0423C189.871 33.4929 189.436 34.7065 188.904 34.7065C188.372 34.7065 188.004 33.4929 188.038 32.0423C188.072 30.5918 188.469 29.3782 188.981 29.383C189.494 29.3879 189.876 30.558 189.871 32.0423Z" fill="#1C171E"/>
<path d="M175.511 43.7483L192.124 46.0643C192.124 46.0643 185.713 52.9496 175.511 43.7483Z" fill="white"/>
<path d="M206.311 100.648C206.311 100.648 214.709 137.85 225.511 135.848C236.313 133.846 219.109 85.4465 219.109 85.4465L206.311 100.648Z" fill="#F29083"/>
<path d="M189.005 66.9473C189.005 66.9473 206.107 62.7504 214.806 73.233C223.504 83.7156 225.308 99.0333 225.308 99.0333L206.707 105.319L189.005 66.9473Z" fill="#0096C8"/>
<path d="M201.378 92.4815L200.934 92.82L206.712 105.348L225.312 99.0622C225.312 99.0622 224.075 88.5796 218.712 79.0109C213.065 83.6284 207.214 88.0236 201.378 92.4815Z" fill="#558AB5"/>
<path d="M232.173 34.6726C232.173 34.6726 228.852 22.372 238 18.1654C238 18.1654 240.823 29.499 232.173 34.6726Z" fill="#965450"/>
<path d="M238.116 25.9017C238.581 23.3399 238.541 20.7121 238 18.1654C236.336 18.9026 234.898 20.0711 233.837 21.55C235.258 23.0199 236.675 24.4705 238.116 25.9017Z" fill="#FC6A5A"/>
<path d="M231.729 33.7879C230.095 35.4415 227.43 41.1905 223.282 53.8343C218.016 69.9015 212.34 91.031 213.737 91.471C215.135 91.911 223.084 71.5696 228.354 55.4976C232.261 43.608 233.605 37.4045 233.474 34.7984C232.884 34.4599 232.304 34.136 231.729 33.7879Z" fill="#FC6A5A"/>
<path d="M231.729 33.7879C230.578 34.9531 228.915 38.1395 226.584 44.3526C228.131 44.9973 229.67 45.642 231.202 46.2867C232.933 40.2089 233.566 36.6164 233.474 34.7887C232.884 34.4599 232.304 34.136 231.729 33.7879Z" fill="#FDDEC0"/>
<path d="M224.713 51.4506C224.713 51.4506 233.513 50.2467 235.51 54.6466C237.507 59.0466 239.91 133.459 227.909 135.848C218.587 137.714 208.714 127.449 222.31 68.6395C222.31 68.6395 216.31 67.0391 218.713 64.2395C218.713 64.2395 215.512 61.0387 219.912 59.8396C219.912 59.8396 217.494 56.6387 221.512 56.2374C221.512 56.2471 217.533 52.2484 224.713 51.4506Z" fill="#FFAC9D"/>
<path d="M227.909 135.848C227.146 136.009 226.367 136.078 225.588 136.056H225.293L225.003 136.017L224.418 135.945C224.034 135.87 223.655 135.766 223.287 135.635C221.8 135.093 220.505 134.126 219.563 132.855C218.617 131.597 217.876 130.197 217.368 128.706C216.847 127.228 216.454 125.707 216.193 124.161C216.126 123.779 216.048 123.393 215.995 123.006L215.845 121.845C215.729 121.067 215.676 120.288 215.608 119.51C215.541 118.731 215.512 117.948 215.468 117.17C215.425 116.391 215.42 115.608 215.41 114.825C215.4 114.041 215.41 113.263 215.41 112.484C215.41 111.706 215.41 110.918 215.473 110.139L215.594 107.799C215.642 107.021 215.715 106.242 215.768 105.464C215.874 103.907 216.063 102.36 216.213 100.803C216.363 99.2459 216.575 97.7035 216.788 96.1611C217.001 94.6186 217.209 93.0666 217.47 91.529C217.731 89.9914 217.953 88.449 218.243 86.9114C218.534 85.3739 218.79 83.8411 219.099 82.3132C219.409 80.7853 219.694 79.2526 220.028 77.7295C220.361 76.2065 220.666 74.6737 220.995 73.1555L222.029 68.596L222.218 68.9102C221.648 68.7462 221.091 68.5426 220.55 68.301C220 68.065 219.479 67.7665 218.998 67.4113C218.751 67.2236 218.527 67.0078 218.33 66.7683C218.12 66.5135 217.974 66.2116 217.905 65.8883C217.838 65.556 217.87 65.2113 217.997 64.8971C218.055 64.7461 218.13 64.6018 218.219 64.4667C218.305 64.3367 218.398 64.2123 218.5 64.0944V64.4281C218.322 64.2366 218.161 64.0312 218.016 63.814C217.863 63.5998 217.73 63.3715 217.62 63.1323C217.56 63.0124 217.51 62.8879 217.47 62.7599C217.425 62.6311 217.393 62.4984 217.373 62.3635L217.339 62.1604V61.9476C217.339 61.8751 217.339 61.8074 217.339 61.7349L217.388 61.527C217.388 61.4593 217.421 61.3868 217.441 61.3191L217.538 61.1305L217.639 60.9419C217.678 60.8839 217.726 60.8356 217.77 60.7824C217.854 60.671 217.951 60.5703 218.06 60.4826L218.389 60.2457C218.499 60.1734 218.616 60.1103 218.737 60.0571L219.09 59.8879L219.825 59.6461L219.713 59.9797C219.58 59.7922 219.46 59.595 219.356 59.3899C219.252 59.1847 219.167 58.9712 219.099 58.7516C219.061 58.6415 219.032 58.5283 219.012 58.4132C218.987 58.2972 218.974 58.1789 218.974 58.0602C218.955 57.9384 218.955 57.8145 218.974 57.6927L219.003 57.5138L219.07 57.3398C219.07 57.2817 219.119 57.2237 219.148 57.1657L219.254 57.0158C219.321 56.9112 219.406 56.8195 219.505 56.745C219.594 56.6642 219.692 56.5928 219.796 56.5323L220.115 56.3727C220.222 56.33 220.332 56.2945 220.443 56.2664C220.55 56.2374 220.661 56.1987 220.772 56.1745L221.439 56.073L221.328 56.3824C221.032 56.0658 220.777 55.7133 220.569 55.3332C220.349 54.9483 220.218 54.5185 220.187 54.076C220.166 53.6163 220.316 53.165 220.608 52.8092C220.9 52.4808 221.26 52.2186 221.662 52.0405C222.049 51.8625 222.452 51.7232 222.866 51.6246C223.277 51.5279 223.693 51.4506 224.108 51.3925C224.524 51.3345 224.935 51.291 225.356 51.2668C225.777 51.2427 226.188 51.2185 226.608 51.2088C228.28 51.1544 229.95 51.34 231.569 51.76C232.378 51.9756 233.147 52.3201 233.846 52.7802C234.193 53.015 234.508 53.2928 234.784 53.607C235.057 53.9212 235.284 54.273 235.457 54.6514C235.275 54.2776 235.042 53.931 234.765 53.6215C234.478 53.3161 234.153 53.048 233.798 52.8237C233.097 52.3818 232.33 52.0553 231.526 51.8567C229.912 51.472 228.251 51.3222 226.594 51.4119C226.178 51.4119 225.767 51.4554 225.356 51.4941C224.945 51.5328 224.534 51.5908 224.123 51.6488C223.712 51.7068 223.316 51.7939 222.919 51.8954C222.525 51.9993 222.142 52.1384 221.773 52.3112C221.416 52.4739 221.098 52.7114 220.84 53.0075C220.599 53.302 220.478 53.6768 220.501 54.0567C220.536 54.4473 220.656 54.8255 220.854 55.164C221.051 55.5138 221.29 55.8385 221.565 56.131L221.812 56.3824L221.459 56.4404L220.83 56.542C220.729 56.542 220.632 56.6 220.535 56.629C220.436 56.6548 220.339 56.6888 220.245 56.7305L219.974 56.8659C219.878 56.9046 219.825 56.9868 219.742 57.04C219.666 57.0958 219.602 57.1665 219.554 57.2479L219.472 57.3591L219.418 57.4897L219.37 57.6202L219.346 57.7604C219.329 57.8548 219.329 57.9514 219.346 58.0457C219.342 58.1451 219.354 58.2445 219.38 58.3406C219.396 58.4412 219.422 58.54 219.457 58.6356C219.521 58.8318 219.6 59.0226 219.694 59.2061C219.789 59.3877 219.898 59.5622 220.018 59.7283L220.192 59.9652L219.902 60.0619L219.22 60.2989C219.109 60.3424 219.007 60.4004 218.901 60.4536C218.794 60.5023 218.69 60.5589 218.592 60.6228L218.316 60.8307C218.231 60.8999 218.154 60.9795 218.089 61.0676C218.051 61.109 218.015 61.1526 217.982 61.1982L217.915 61.3384L217.837 61.4835L217.803 61.6382L217.765 61.7929C217.765 61.8509 217.765 61.9041 217.765 61.9573V62.1217L217.799 62.2861C217.814 62.3968 217.842 62.5054 217.881 62.6101C217.917 62.7217 217.962 62.83 218.016 62.934C218.116 63.1464 218.236 63.3488 218.374 63.5384C218.508 63.733 218.659 63.9157 218.824 64.0848L218.969 64.2298L218.838 64.4184C218.753 64.5209 218.676 64.6291 218.606 64.7424C218.535 64.8488 218.475 64.9622 218.427 65.0808C218.34 65.3071 218.318 65.5535 218.364 65.7916C218.422 66.0345 218.534 66.2611 218.693 66.454C218.864 66.6605 219.058 66.8456 219.273 67.0052C219.724 67.334 220.21 67.6098 220.724 67.8272C221.24 68.0553 221.772 68.2475 222.315 68.4025L222.561 68.4702L222.508 68.7168L221.493 73.2764C221.149 74.7994 220.85 76.3273 220.526 77.8504C220.202 79.3735 219.916 80.9014 219.617 82.4293C219.317 83.9572 219.051 85.4899 218.77 87.0227C218.49 88.5554 218.243 90.0881 217.987 91.6257C217.731 93.1633 217.504 94.7008 217.286 96.2384C217.069 97.776 216.885 99.3281 216.691 100.87C216.498 102.413 216.343 103.96 216.237 105.512C216.174 106.291 216.101 107.064 216.053 107.838L215.923 110.168C215.874 110.942 215.869 111.721 215.84 112.499C215.811 113.277 215.802 114.051 215.807 114.83C215.811 115.608 215.807 116.382 215.836 117.16C215.865 117.939 215.879 118.712 215.947 119.486C216.014 120.259 216.048 121.033 216.155 121.802L216.29 122.957C216.343 123.344 216.411 123.726 216.474 124.108C216.718 125.638 217.088 127.145 217.581 128.614C218.049 130.092 218.749 131.486 219.655 132.744C220.555 134.012 221.808 134.987 223.257 135.548C223.62 135.684 223.992 135.795 224.37 135.882L224.945 135.964L225.235 136.007H225.525C226.323 136.051 227.124 135.998 227.909 135.848Z" fill="#D15A5A"/>
<path d="M161.711 67.247C161.711 67.247 165.313 79.5476 177.01 79.2478C188.706 78.948 189.006 66.9472 189.006 66.9472C189.006 66.9472 206.412 63.9494 209.705 72.0483C212.997 80.1471 211.208 165.047 211.208 165.047L146.713 163.558C146.713 163.558 137.71 74.1564 142.211 70.8588C146.713 67.5613 161.711 67.247 161.711 67.247Z" fill="#0096C8"/>
<path d="M183.585 108.67C174.587 102.867 166.952 95.281 159.313 87.8397C153.714 82.3857 147.984 76.6367 143.599 70.0609C143.111 70.2763 142.646 70.5404 142.211 70.8491C137.709 74.1466 140.586 163.548 140.586 163.548L211.213 165.047C211.213 165.047 211.672 143.371 211.697 120.878C201.843 118.108 192.216 114.24 183.585 108.67Z" fill="#0096C8"/>
<path d="M142.211 70.8492C141.881 71.207 141.653 71.6458 141.548 72.1208C141.413 72.5854 141.302 73.0567 141.215 73.5327C141.036 74.4997 140.91 75.4425 140.799 76.4047C140.586 78.3388 140.451 80.2728 140.34 82.2069C140.122 86.075 140.02 89.9431 139.948 93.8112C139.813 101.547 139.798 109.308 139.856 117.059C139.982 132.554 140.304 148.047 140.823 163.539L140.601 163.321L158.259 163.689L175.912 164.09L211.208 164.897L211.053 165.047L211.329 126.12L211.658 87.1919L211.537 126.12L211.358 165.047V165.202H211.203L175.907 164.506L158.254 164.162L140.596 163.776H140.378V163.558C139.933 148.06 139.663 132.56 139.566 117.059C139.566 113.19 139.566 109.322 139.566 105.454C139.595 101.586 139.634 97.718 139.74 93.8257C139.846 89.9334 139.991 86.0895 140.223 82.2214C140.354 80.2873 140.509 78.3533 140.736 76.4192C140.857 75.4522 140.992 74.4852 141.181 73.5472C141.271 73.0704 141.387 72.5991 141.529 72.1353C141.638 71.6536 141.873 71.2096 142.211 70.8492Z" fill="#1B4268"/>
<path d="M138.009 73.847C138.009 73.847 116.111 123.349 123.31 132.352C130.51 141.355 185.413 119.452 185.413 119.452L172.812 110.154L145.513 113.756L158.713 78.658L138.009 73.847Z" fill="#FFAC9D"/>
<path d="M160.232 128.31C173.61 124.157 185.413 119.447 185.413 119.447L172.813 110.149L148.12 113.403C150.542 119.375 155.029 124.166 160.232 128.31Z" fill="#F29083"/>
<path d="M147.907 107.364L158.709 78.6483L138.005 73.847C138.005 73.847 132.657 85.9349 128.117 99.2557C133.996 103.462 140.799 105.957 147.907 107.364Z" fill="#F29083"/>
<path d="M129.708 119.346C129.708 119.346 129.848 119.239 130.133 119.065C130.418 118.891 130.824 118.625 131.371 118.33C131.917 118.035 132.589 117.697 133.363 117.315C134.137 116.933 135.046 116.565 136.032 116.159L137.594 115.598C138.135 115.405 138.691 115.192 139.281 115.033C140.456 114.704 141.674 114.273 142.985 114.027L144.967 113.592L145.48 113.481L145.963 113.398L146.988 113.234L151.161 112.562C152.563 112.359 153.951 112.112 155.343 111.967L159.41 111.484C160.725 111.324 162.006 111.189 163.215 111.053L166.629 110.729C170.855 110.333 173.683 110.164 173.683 110.164L166.662 111.068L163.278 111.488C162.074 111.658 160.807 111.837 159.492 112.001L155.44 112.523C154.062 112.683 152.67 112.949 151.267 113.157L147.095 113.79L146.065 113.945L145.552 114.022L145.069 114.124L143.101 114.539C141.8 114.781 140.582 115.158 139.407 115.458C138.817 115.598 138.261 115.792 137.715 115.966L136.148 116.478C135.664 116.657 135.181 116.851 134.731 117.02C134.282 117.189 133.846 117.339 133.455 117.503C132.667 117.851 131.975 118.137 131.424 118.427C130.873 118.717 130.457 118.91 130.148 119.08C129.838 119.249 129.708 119.346 129.708 119.346Z" fill="#D15A5A"/>
<path d="M161.711 67.247C161.711 67.247 145.813 54.0471 135.601 70.2496C125.39 86.4522 124.8 92.4477 124.8 92.4477C124.8 92.4477 141.302 103.849 155.102 105.648L161.711 67.247Z" fill="#0096C8"/>
<path d="M145.973 62.412L144.813 62.7021C144.431 62.8036 144.063 62.968 143.691 63.0985C143.317 63.2299 142.955 63.3916 142.608 63.5821C142.245 63.7458 141.898 63.9399 141.568 64.1623C141.239 64.3799 140.901 64.5829 140.577 64.815L139.658 65.5693C139.353 65.8211 139.063 66.0924 138.793 66.3816C138.522 66.6669 138.222 66.928 137.976 67.2374L137.221 68.1561C137.1 68.3108 136.97 68.4607 136.854 68.6396L136.52 69.1231C136.075 69.7807 135.621 70.4238 135.229 71.1152L132.783 75.2154C132.362 75.8923 131.99 76.5934 131.613 77.2897L130.501 79.3784C130.119 80.0747 129.732 80.7661 129.393 81.4866L128.339 83.6237C127.977 84.3296 127.662 85.0742 127.348 85.785C127.034 86.4958 126.69 87.2355 126.425 87.9753C126.159 88.7151 125.849 89.4259 125.632 90.2091L125.288 91.3406C125.211 91.7177 125.095 92.1094 125.051 92.472L124.955 92.2592C126.096 93.028 127.266 93.7726 128.45 94.4882C129.635 95.2038 130.829 95.9098 132.038 96.5867C132.638 96.93 133.247 97.2588 133.856 97.5876C134.465 97.9163 135.07 98.25 135.689 98.5546C136.308 98.8592 136.917 99.1977 137.54 99.4926L139.412 100.392L141.307 101.238C141.936 101.528 142.579 101.784 143.241 102.041C143.904 102.297 144.518 102.577 145.175 102.795L147.109 103.496C147.762 103.709 148.429 103.902 149.087 104.105C149.744 104.308 150.416 104.482 151.089 104.642C151.761 104.802 152.423 105.005 153.105 105.101L155.145 105.459L154.937 105.614L156.915 94.4931L158.941 83.4061L157.147 94.5269L155.305 105.648L155.271 105.827L155.097 105.798L153.032 105.459C152.341 105.367 151.669 105.164 150.987 105.019C150.305 104.874 149.633 104.7 148.971 104.482C148.308 104.265 147.631 104.091 146.969 103.878L145.006 103.216C144.344 102.998 143.71 102.732 143.072 102.461C142.434 102.191 141.781 101.954 141.138 101.664L139.204 100.817L137.318 99.9229C136.69 99.628 136.075 99.2992 135.457 98.9897C134.838 98.6803 134.219 98.3515 133.61 98.0227C133 97.6939 132.381 97.37 131.782 97.017C130.567 96.3337 129.369 95.6277 128.189 94.8992C127 94.174 125.83 93.4487 124.674 92.6412L124.563 92.5639V92.4285C124.616 92.003 124.737 91.6307 124.819 91.2294L125.182 90.0641C125.409 89.2905 125.728 88.5604 125.994 87.8061C126.26 87.0518 126.623 86.3555 126.932 85.6013C127.242 84.847 127.57 84.1507 127.938 83.4303L129.011 81.2883C129.355 80.5727 129.751 79.8813 130.143 79.185L131.313 77.0963C131.704 76.4048 132.082 75.7037 132.512 75.0317L135.007 70.9605C135.403 70.2739 135.872 69.6163 136.332 68.9684L136.675 68.4849C136.801 68.3302 136.931 68.1803 137.062 68.0014L137.835 67.0875C138.097 66.7829 138.406 66.5218 138.686 66.2414C138.963 65.9538 139.258 65.6856 139.571 65.4388L140.538 64.699C140.862 64.4717 141.21 64.2735 141.549 64.0559C142.235 63.6521 142.955 63.3076 143.7 63.026C144.082 62.9051 144.45 62.7456 144.837 62.6537L145.973 62.412Z" fill="#1B4268"/>
<path d="M199.512 107.751C185.712 90.9489 181.811 91.2486 176.709 94.8508C171.608 98.453 168.91 96.9493 168.91 96.9493C159.313 91.2487 152.307 84.2329 146.413 94.5317C140.412 105.053 174.016 142.849 190.209 140.751C206.402 138.652 213.311 124.548 199.512 107.751ZM189.643 106.678C188.792 108.413 185.036 108.317 181.254 106.46C177.473 104.603 175.095 101.693 175.936 99.9567C176.777 98.2209 180.549 98.3225 184.33 100.174C188.111 102.026 190.494 104.942 189.643 106.678Z" fill="white"/>
<path d="M175.211 100.846C175.211 100.846 177.909 96.05 181.497 95.7502C185.084 95.4504 199.798 102.95 184.799 100.846C184.814 100.846 182.111 111.75 175.211 100.846Z" fill="#FFAC9D"/>
<path d="M159.11 112.649C161.54 112.649 163.51 110.679 163.51 108.249C163.51 105.819 161.54 103.849 159.11 103.849C156.68 103.849 154.71 105.819 154.71 108.249C154.71 110.679 156.68 112.649 159.11 112.649Z" fill="#965450"/>
<path d="M168.708 123.847C171.138 123.847 173.108 121.877 173.108 119.447C173.108 117.017 171.138 115.047 168.708 115.047C166.278 115.047 164.308 117.017 164.308 119.447C164.308 121.877 166.278 123.847 168.708 123.847Z" fill="#6F96BD"/>
<path d="M185.021 132.158C186.739 130.44 186.739 127.654 185.021 125.936C183.302 124.218 180.517 124.218 178.798 125.936C177.08 127.654 177.08 130.44 178.798 132.158C180.517 133.877 183.302 133.877 185.021 132.158Z" fill="#5D8584"/>
<path d="M195.107 133.846C197.538 133.846 199.507 131.876 199.507 129.446C199.507 127.016 197.538 125.046 195.107 125.046C192.677 125.046 190.708 127.016 190.708 129.446C190.708 131.876 192.677 133.846 195.107 133.846Z" fill="#FFA65B"/>
<path d="M196.708 120.245C199.138 120.245 201.108 118.275 201.108 115.845C201.108 113.415 199.138 111.445 196.708 111.445C194.278 111.445 192.308 113.415 192.308 115.845C192.308 118.275 194.278 120.245 196.708 120.245Z" fill="#FC6A5A"/>
<path d="M63.1466 139.068C63.1466 139.068 41.7076 161.653 42.4474 215.778H118.983C118.983 215.778 120.501 153.69 92.2058 141.157C63.9106 128.624 63.1466 139.068 63.1466 139.068Z" fill="#0096C8"/>
<path d="M75.8633 193.454C70.0225 191.964 63.6208 189.653 58.0797 187.516C53.7281 185.843 48.8349 184.015 45.2859 181.264C43.7387 186.438 42.3849 206.847 42.438 215.777H75.8633V193.454Z" fill="#0096C8"/>
<path d="M98.2646 144.585C96.3621 143.247 94.3329 142.099 92.2062 141.157C63.9061 128.619 63.147 139.068 63.147 139.068C61.4049 140.94 59.8472 142.975 58.4956 145.146C71.7139 146.802 85.0982 146.613 98.2646 144.585Z" fill="#0096C8"/>
<path d="M118.983 215.778C118.983 215.778 120.501 153.69 92.206 141.157C63.9108 128.624 63.1469 139.068 63.1469 139.068C63.1469 139.068 42.1914 159.236 42.4476 215.778" stroke="#1B4268" stroke-width="0.5" stroke-miterlimit="10"/>
<path d="M49.4731 183.803C50.005 184.044 50.5417 184.286 51.0784 184.513C51.6151 184.741 52.1421 184.997 52.6837 185.215L54.2986 185.896C54.8353 186.133 55.3817 186.336 55.9232 186.559L57.5478 187.216C58.0845 187.439 58.6309 187.647 59.1821 187.85L62.4651 189.073L65.7821 190.19C66.3333 190.378 66.8845 190.577 67.4453 190.727L69.128 191.21L70.8106 191.694C71.3666 191.868 71.9372 191.979 72.5077 192.105L75.9165 192.849H75.8198L82.8501 191.399C85.1951 190.915 87.5353 190.432 89.8852 189.992L96.9252 188.618L103.98 187.303L96.9783 188.875L89.9674 190.388C87.632 190.901 85.287 191.355 82.9468 191.868L75.9262 193.318H75.8681H75.8246L72.3868 192.54C71.8163 192.409 71.2409 192.293 70.6849 192.114L68.9974 191.631L67.31 191.147C66.7442 190.992 66.193 190.789 65.6418 190.596L62.3249 189.445L59.0612 188.154C58.5165 187.942 57.9749 187.719 57.4366 187.487L55.8265 186.791C55.2898 186.554 54.7483 186.331 54.2212 186.075L52.6257 185.34C51.5668 184.833 50.5175 184.349 49.4731 183.803Z" fill="#1B4268"/>
<path d="M75.6892 215.777L75.6118 204.444V193.115H76.1292C76.1292 193.115 76.1292 198.777 76.1292 204.444C76.1292 210.111 76.047 215.777 76.047 215.777H75.6892Z" fill="#1B4268"/>
<path d="M90.175 80.5145C90.175 80.5145 88.0621 97.9549 90.7407 97.5004C93.4194 97.0458 104.666 90.6683 107.035 102.113C109.404 113.558 93.2066 136.443 93.2066 136.443L57.0398 136.012C57.0398 136.012 50.9717 101.359 60.5791 97.9258C70.1866 94.4929 76.2208 104.008 75.8823 89.1694C75.539 74.108 90.175 80.5145 90.175 80.5145Z" fill="#965450"/>
<path d="M75.4521 95.2569C75.74 93.2373 75.8838 91.1998 75.8825 89.1598C76.1968 74.0935 90.1751 80.5146 90.1751 80.5146C90.1751 80.5146 89.6433 84.929 89.4499 89.2613C85.9057 91.8288 79.5233 94.1351 75.4521 95.2569Z" fill="#76413B"/>
<path d="M72.4787 48.0951C72.4787 48.0951 64.5007 42.0221 55.957 55.5025C47.4133 68.9829 57.0933 83.0628 68.1077 83.232C79.1222 83.4012 72.4787 48.0951 72.4787 48.0951Z" fill="#EFC8A8"/>
<path d="M72.4787 48.0951C72.4787 48.0951 64.5007 42.0221 55.957 55.5025C47.4133 68.9829 57.0933 83.0628 68.1077 83.232C79.1222 83.4012 72.4787 48.0951 72.4787 48.0951Z" stroke="#C98D61" stroke-width="1.06" stroke-miterlimit="10"/>
<path d="M78.3049 50.5078C78.3049 50.5078 63.7608 49.1685 62.0685 65.3178C59.9169 85.872 72.3045 98.2692 84.1989 89.155C96.0934 80.0408 97.6938 50.0243 78.3049 50.5078Z" fill="#965450"/>
<path d="M90.4799 75.4957C90.4799 75.4957 91.3793 66.5121 95.3151 68.272C99.2509 70.032 96.7656 82.0328 90.0786 78.6096" fill="#965450"/>
<path d="M78.3049 50.5077C78.3049 50.5077 77.9906 50.4835 77.4055 50.5077C76.5579 50.5306 75.7129 50.613 74.8767 50.7543C73.5846 50.9762 72.3234 51.3511 71.1198 51.8712C69.4217 52.5915 67.8866 53.6476 66.607 54.9763C65.3274 56.3049 64.3297 57.8785 63.6737 59.6026C62.8796 61.6918 62.4068 63.8894 62.2716 66.1203C62.0612 68.5091 62.0612 70.9117 62.2716 73.3005C62.4752 75.7678 62.9702 78.2023 63.7463 80.5532C64.4925 82.8993 65.6375 85.0992 67.1309 87.0565C67.8685 88.0012 68.7158 88.8549 69.6548 89.5998C70.5774 90.3099 71.5987 90.8817 72.6864 91.2969C73.7404 91.6918 74.8539 91.9044 75.9792 91.9255C77.0609 91.9609 78.1414 91.8238 79.18 91.5193C81.0983 90.9557 82.8827 90.01 84.4261 88.7391C85.7465 87.6727 86.9102 86.426 87.8833 85.0354C88.3668 84.4358 88.6956 83.8073 89.0534 83.2561C89.4112 82.7048 89.6577 82.1488 89.9237 81.6701C90.4072 80.7031 90.7457 79.8956 90.9439 79.3444L91.2775 78.508L90.9729 79.3541C90.7892 79.915 90.4555 80.7079 90.0059 81.7136C89.7593 82.1972 89.4982 82.7532 89.1839 83.3383C88.8696 83.9233 88.5167 84.5422 88.0622 85.1659C87.8397 85.4754 87.6367 85.8187 87.3756 86.133L86.5874 87.1C85.991 87.7792 85.3445 88.4128 84.6534 88.9954C83.0875 90.3284 81.2686 91.3315 79.3057 91.9448C78.2262 92.2814 77.1001 92.4446 75.9695 92.4283C74.7855 92.4245 73.6116 92.21 72.5027 91.7949C71.3583 91.3681 70.283 90.7751 69.3115 90.0349C68.3309 89.2671 67.4447 88.3858 66.6715 87.4094C65.1222 85.4067 63.9313 83.1508 63.1515 80.7418C62.3814 78.3458 61.8946 75.8678 61.701 73.3585C61.5048 70.9362 61.5193 68.5014 61.7445 66.0816C61.8945 63.8001 62.4086 61.5572 63.2676 59.4382C64.0333 57.5344 65.1953 55.8154 66.6764 54.3951C67.9392 53.2115 69.4161 52.2794 71.028 51.6488C72.2595 51.16 73.5451 50.8208 74.8574 50.6382C75.6982 50.5191 76.5466 50.4609 77.3958 50.4642C77.9906 50.4738 78.3049 50.5077 78.3049 50.5077Z" fill="#54201C"/>
<path d="M92.206 47.3359C92.206 47.3359 80.4276 36.6986 92.7766 31.5734C105.126 26.4481 105.121 44.1109 96.9541 46.7702C96.9541 46.7702 100.938 47.5293 104.55 40.4845C104.55 40.499 103.22 53.4137 92.206 47.3359Z" fill="#EFC8A8"/>
<path d="M92.2059 47.3361C91.5134 46.6839 90.8672 45.9844 90.2718 45.2425C89.6637 44.5036 89.1125 43.7197 88.623 42.8975C88.1298 42.0755 87.7369 41.1973 87.4529 40.2817C87.1589 39.3646 87.0553 38.3971 87.1483 37.4386C87.2607 36.4725 87.6167 35.5507 88.1831 34.7599C88.7539 33.9767 89.4635 33.3048 90.2767 32.7775C91.0799 32.2403 91.9333 31.7821 92.8248 31.4092C93.2744 31.2496 93.6999 31.0465 94.1738 30.9257L94.8797 30.7226C95.1166 30.6694 95.3632 30.6307 95.5953 30.5872C96.5567 30.4125 97.5435 30.4339 98.4964 30.6501C99.4698 30.8928 100.351 31.4156 101.03 32.1538C101.699 32.8905 102.195 33.7678 102.481 34.7213C102.76 35.6626 102.897 36.6405 102.887 37.6223C102.885 39.5851 102.375 41.5139 101.407 43.2214C100.922 44.0766 100.302 44.8473 99.5698 45.5036C98.8317 46.1555 97.9677 46.6492 97.0313 46.9541L97.0023 46.5287C97.1986 46.5458 97.396 46.5458 97.5922 46.5287C97.797 46.5082 98.0004 46.4759 98.2014 46.4319C98.4045 46.3981 98.6028 46.3159 98.801 46.2627C98.9992 46.2095 99.1926 46.1128 99.3812 46.021C99.5698 45.9291 99.7584 45.8324 99.9373 45.7212L100.469 45.3779L100.953 44.9862C101.127 44.8605 101.267 44.701 101.436 44.5608C101.596 44.4178 101.748 44.2661 101.891 44.1062L102.316 43.6227C102.461 43.4632 102.582 43.2843 102.717 43.1392C102.853 42.9942 102.983 42.8008 103.104 42.6267L103.462 42.0852C103.573 41.9063 103.704 41.7322 103.81 41.5436L104.444 40.4219L104.753 39.8755L104.676 40.4896C104.569 41.2258 104.407 41.9531 104.192 42.6654C103.986 43.3769 103.722 44.0706 103.404 44.7397C103.24 45.0733 103.066 45.3972 102.872 45.7067C102.675 46.0203 102.462 46.3237 102.234 46.6157C101.998 46.9022 101.743 47.172 101.47 47.4232C101.196 47.6714 100.902 47.8962 100.59 48.0952C100.275 48.2899 99.9416 48.4519 99.594 48.5788C99.4233 48.6496 99.247 48.7062 99.0669 48.748C98.8902 48.8017 98.709 48.8389 98.5254 48.8592C98.1592 48.9172 97.7889 48.9463 97.4182 48.9462C97.0505 48.9326 96.684 48.8971 96.3206 48.8399C95.9565 48.7816 95.5964 48.7009 95.2423 48.5981C94.8845 48.5062 94.5413 48.3612 94.1931 48.2451L93.1826 47.8051L92.2059 47.3361ZM92.2059 47.3361L93.1729 47.8196L94.1883 48.25C94.5412 48.3612 94.8797 48.5014 95.2375 48.5884C95.5913 48.6898 95.9515 48.7674 96.3157 48.8205C96.679 48.8785 97.0456 48.9124 97.4133 48.922C97.7795 48.9186 98.1449 48.8863 98.5061 48.8253C98.6882 48.8034 98.8679 48.7646 99.0428 48.7093C99.2197 48.6675 99.3927 48.6109 99.5601 48.5401C99.8984 48.413 100.223 48.251 100.527 48.0566C100.835 47.8606 101.125 47.6373 101.393 47.3893C101.656 47.1345 101.902 46.8614 102.128 46.5722C102.349 46.281 102.554 45.9775 102.742 45.6632C102.921 45.3489 103.09 45.0249 103.225 44.6961C103.523 44.0279 103.769 43.3377 103.96 42.6315C104.153 41.9272 104.293 41.2097 104.381 40.4847L104.608 40.5524L104.037 41.7129C103.931 41.9014 103.805 42.0803 103.694 42.2689L103.341 42.8201C103.22 43.0038 103.085 43.1731 102.959 43.352C102.834 43.5309 102.703 43.7098 102.563 43.8742L102.132 44.3577C101.982 44.529 101.82 44.6905 101.649 44.8412C101.489 44.9911 101.344 45.1555 101.165 45.2909L100.653 45.7115L100.102 46.0838C99.9131 46.2047 99.7148 46.3014 99.5214 46.4126C99.328 46.5238 99.1105 46.5963 98.9074 46.6834C98.7043 46.7704 98.4819 46.8381 98.2595 46.8816C98.0382 46.9336 97.8136 46.9707 97.5874 46.9928C97.3528 47.0193 97.116 47.0193 96.8815 46.9928L95.9821 46.8574L96.8524 46.5625C97.7299 46.2623 98.5363 45.7851 99.2217 45.1603C99.9086 44.5323 100.49 43.7976 100.943 42.9845C101.401 42.171 101.748 41.2992 101.973 40.3929C102.211 39.488 102.339 38.5578 102.355 37.6223C102.373 36.6906 102.251 35.7615 101.992 34.8663C101.738 33.9732 101.289 33.1475 100.677 32.4487C100.053 31.7703 99.2501 31.2811 98.361 31.0369C97.4574 30.816 96.5186 30.7782 95.6002 30.9257C94.6652 31.0692 93.7501 31.3207 92.8731 31.6751C91.9931 32.0217 91.1493 32.4541 90.354 32.9661C89.5486 33.4604 88.8433 34.1017 88.2749 34.8566C87.7042 35.6138 87.3364 36.5042 87.2064 37.4434C87.096 38.3897 87.1866 39.3486 87.4723 40.2575C87.7468 41.1711 88.1316 42.0479 88.6182 42.8685C89.0971 43.6936 89.6386 44.4808 90.238 45.2232C90.8449 45.9716 91.5024 46.6776 92.2059 47.3361Z" fill="#C98D61"/>
<path d="M93.1395 48.1758C95.1801 47.3456 96.1613 45.0182 95.331 42.9776C94.5008 40.937 92.1735 39.9558 90.1328 40.7861C88.0922 41.6164 87.1111 43.9437 87.9413 45.9843C88.7716 48.0249 91.0989 49.0061 93.1395 48.1758Z" fill="#6F96BD"/>
<path d="M70.3658 47.1473C70.3658 47.1473 70.1724 68.2285 91.065 73.3537C91.065 73.3537 90.7797 67.5129 94.8654 68.6104C98.9511 69.708 96.3836 75.4473 96.3836 75.4473C96.3836 75.4473 107.775 63.843 96.7608 49.0475C87.3709 36.4181 70.3658 47.1473 70.3658 47.1473Z" fill="#FDDEC0"/>
<path d="M96.3836 75.4474C97.1866 74.544 97.8991 73.5643 98.5111 72.5221C99.1314 71.4903 99.6604 70.4064 100.092 69.2826C100.972 67.0401 101.42 64.6515 101.412 62.2426C101.411 61.0438 101.288 59.8482 101.045 58.6743C100.995 58.379 100.929 58.0868 100.846 57.7991C100.769 57.509 100.706 57.2189 100.614 56.9288C100.426 56.3631 100.261 55.7877 100.024 55.2365C99.5808 54.1235 99.0572 53.0441 98.4579 52.0066C98.1485 51.4941 97.8245 50.9864 97.4909 50.4836C97.1573 49.9807 96.8043 49.4875 96.4465 49.033C96.0837 48.5543 95.693 48.0974 95.2764 47.6647C95.0685 47.4568 94.8751 47.2295 94.6575 47.0313L93.9854 46.4414C93.0752 45.6706 92.0692 45.0205 90.9925 44.5073C89.9123 44.0084 88.7759 43.6415 87.6079 43.4146C86.4439 43.2167 85.2634 43.1325 84.0831 43.1632C82.8897 43.1891 81.7008 43.3169 80.5292 43.5451C79.3517 43.766 78.189 44.0599 77.0479 44.4251C75.9071 44.7952 74.787 45.2262 73.6923 45.7161C72.5976 46.1965 71.5334 46.7439 70.506 47.3552L70.6172 47.1618C70.6255 47.9019 70.6723 48.6411 70.7574 49.3763C70.8396 50.1161 70.9508 50.8559 71.0862 51.586C71.2216 52.3161 71.3811 53.0365 71.5697 53.7715C71.7583 54.5064 71.9662 55.222 72.1983 55.9134C72.4304 56.6048 72.6818 57.3205 72.9816 58.0119C73.2814 58.7033 73.5763 59.3754 73.9486 60.0378C74.1082 60.3714 74.2919 60.7002 74.4756 61.0048C74.6594 61.3094 74.8431 61.6576 75.0462 61.9718C75.433 62.6101 75.873 63.2145 76.3033 63.8237C76.7336 64.4329 77.2268 64.9986 77.7539 65.5402L78.1262 65.9608L78.5226 66.3525C78.7934 66.6136 79.0448 66.8892 79.3253 67.1358L80.1666 67.8707C80.4519 68.1173 80.7565 68.3542 81.0466 68.567C81.3355 68.8044 81.6373 69.0255 81.9508 69.2294L82.8743 69.8628C83.527 70.2303 84.1507 70.6509 84.8083 70.97L85.8092 71.4777L86.8439 71.9226C87.5257 72.2368 88.2413 72.4544 88.9472 72.7155C89.6531 72.9766 90.3977 73.141 91.1037 73.3538C90.3832 73.1555 89.6531 72.9863 88.9327 72.759C88.2123 72.5318 87.4822 72.3142 86.8052 72.0096L85.7608 71.5841L84.7406 71.1006C84.054 70.7911 83.4158 70.385 82.7534 70.0272L81.7864 69.4131C81.4672 69.21 81.1626 68.9925 80.8629 68.7604C80.5631 68.5283 80.2488 68.3204 79.9635 68.0738L79.0835 67.3388C78.7934 67.0923 78.5372 66.8167 78.2616 66.5604L77.8554 66.1639L77.4734 65.7481C76.9512 65.2017 76.4822 64.607 76.0229 64.0219C75.5635 63.4369 75.1284 62.8083 74.7271 62.1653C74.5143 61.851 74.3257 61.5222 74.1372 61.1982C73.9486 60.8743 73.7552 60.5406 73.586 60.207C73.2282 59.5398 72.909 58.8532 72.6189 58.1618C72.3288 57.4703 72.0484 56.7596 71.8018 56.044C71.5552 55.3284 71.3425 54.5934 71.1539 53.873C70.9653 53.1526 70.7913 52.4225 70.6704 51.6633C70.5495 50.9042 70.4141 50.1693 70.3271 49.4198C70.2401 48.6704 70.182 47.9161 70.1724 47.1473V47.0313L70.2836 46.9636C71.3275 46.3346 72.4094 45.771 73.5231 45.2761C74.6259 44.7735 75.7558 44.3329 76.9077 43.9561C78.0646 43.5756 79.2453 43.272 80.4422 43.0471C81.6431 42.8208 82.8612 42.6979 84.0831 42.6797C85.3084 42.6585 86.5329 42.7589 87.7384 42.9794C88.9447 43.2168 90.1171 43.6017 91.2294 44.1254C92.3413 44.6507 93.3799 45.3187 94.319 46.1126L95.0056 46.7218C95.2329 46.9297 95.436 47.1618 95.6487 47.3842C96.0682 47.8238 96.4621 48.2871 96.8285 48.7719C97.2105 49.2554 97.5344 49.768 97.8922 50.266C98.25 50.764 98.5353 51.2959 98.8592 51.8229C99.4616 52.8824 99.9821 53.9864 100.416 55.1253C100.648 55.6862 100.813 56.2761 100.996 56.8563C101.083 57.1464 101.146 57.4462 101.224 57.7411C101.301 58.036 101.364 58.3358 101.412 58.6356C101.645 59.8317 101.755 61.0484 101.741 62.2668C101.738 63.4841 101.608 64.6978 101.354 65.8883C101.102 67.0756 100.743 68.2376 100.281 69.3599C99.8216 70.483 99.2651 71.5638 98.6175 72.5898C97.9676 73.6127 97.2194 74.5698 96.3836 75.4474Z" fill="#C98D61"/>
<path d="M63.9691 71.1344C63.9691 71.1344 63.9981 71.3133 64.0513 71.6179C64.1253 72.0343 64.2237 72.446 64.3462 72.8509C64.4977 73.4098 64.7324 73.9428 65.0425 74.432C65.1328 74.5545 65.2314 74.6708 65.3374 74.7801C65.4458 74.8798 65.5659 74.9659 65.6952 75.0363C65.9588 75.1769 66.2594 75.2326 66.5559 75.1959H66.5849H66.6526L66.7831 75.1717C66.8653 75.1717 66.9572 75.1331 67.0345 75.1089C67.3181 75.0015 67.5765 74.8369 67.7937 74.6254C67.9082 74.5221 68.0134 74.4088 68.1079 74.2869C68.4527 73.8218 68.7204 73.3043 68.9009 72.7542C69.0419 72.356 69.1566 71.9489 69.2442 71.5357C69.3119 71.2311 69.3409 71.0522 69.3409 71.0522C69.3783 71.6487 69.3327 72.2475 69.2055 72.8315C69.1481 73.1197 69.0672 73.4027 68.9638 73.6777C68.8415 73.9938 68.679 74.2928 68.4802 74.5673C68.3838 74.7213 68.2685 74.8626 68.137 74.988C68.006 75.1268 67.8582 75.2486 67.697 75.3506C67.5222 75.4581 67.3376 75.5488 67.1457 75.6214L66.8895 75.6843L66.7589 75.7133H66.6961H66.5945C66.1885 75.7519 65.7803 75.6659 65.4244 75.4667C65.0948 75.271 64.8203 74.9948 64.6266 74.664C64.3133 74.115 64.1082 73.511 64.0222 72.8847C63.9581 72.4574 63.9274 72.0258 63.9304 71.5937C63.9497 71.3133 63.9691 71.1344 63.9691 71.1344Z" fill="#1C171E"/>
<path d="M78.0148 71.3714C78.0148 71.3714 78.039 71.5454 78.097 71.8549C78.171 72.2713 78.2695 72.683 78.392 73.0878C78.5413 73.6476 78.7761 74.1809 79.0882 74.6689C79.1786 74.7915 79.2771 74.9078 79.3832 75.0171C79.4915 75.1168 79.6117 75.2028 79.741 75.2733C80.002 75.4163 80.3018 75.4722 80.5968 75.4329H80.6306H80.6935H80.824C80.9111 75.4329 81.0029 75.399 81.0803 75.3749C81.2141 75.3173 81.3449 75.2527 81.4719 75.1815C81.6009 75.0989 81.7222 75.005 81.8346 74.901C81.9516 74.8002 82.057 74.6867 82.1489 74.5626C82.496 74.0982 82.7654 73.5805 82.9467 73.0298C83.0877 72.6316 83.2023 72.2246 83.29 71.8114C83.3576 71.5068 83.3867 71.3279 83.3867 71.3279C83.4241 71.9244 83.3785 72.5232 83.2513 73.1072C83.1921 73.3954 83.1096 73.6784 83.0047 73.9533C82.8836 74.2715 82.721 74.5722 82.5212 74.8478C82.4202 74.9984 82.3035 75.1377 82.173 75.2637C82.0431 75.4036 81.8952 75.5255 81.733 75.6263C81.5605 75.7347 81.3774 75.8254 81.1867 75.8971C81.0948 75.9261 81.0126 75.9357 80.9256 75.9599L80.7999 75.9889H80.7322H80.6355C80.2279 76.0273 79.8183 75.9413 79.4605 75.7423C79.1331 75.5439 78.8591 75.2684 78.6627 74.9397C78.3515 74.3919 78.1479 73.7895 78.0632 73.1652C77.9967 72.7366 77.9659 72.3031 77.9713 71.8694C77.9753 71.7026 77.9898 71.5363 78.0148 71.3714Z" fill="#1C171E"/>
<path d="M72.087 71.4682C72.058 71.8502 72.0097 72.2225 71.9661 72.5948C71.9226 72.9671 71.8743 73.3443 71.8211 73.7166C71.7099 74.4612 71.5842 75.201 71.4488 75.9407C71.3859 76.313 71.3086 76.6805 71.236 77.048C71.1635 77.4155 71.091 77.7878 71.0088 78.1504C70.8541 78.8853 70.68 79.6009 70.5011 80.3504L70.2835 80.0361C70.8541 80.1521 71.4246 80.2682 71.9903 80.3939C72.2756 80.4568 72.556 80.5341 72.8365 80.6018C73.1169 80.6695 73.4022 80.742 73.6826 80.8242C73.3925 80.8242 73.1024 80.8242 72.8123 80.7807C72.5222 80.7372 72.2272 80.7469 71.942 80.7227C71.3618 80.6792 70.7815 80.6163 70.2062 80.5535C70.1402 80.5462 70.0798 80.5131 70.0382 80.4615C69.9965 80.4098 69.977 80.3438 69.9837 80.2779V80.244C70.1143 79.4994 70.2448 78.7596 70.3996 78.0247C70.4673 77.6572 70.5494 77.2897 70.6316 76.9223C70.7138 76.5548 70.7864 76.1873 70.8782 75.8247C71.0475 75.0898 71.2264 74.3742 71.4246 73.6344C71.5262 73.2717 71.6277 72.9091 71.7389 72.5513C71.8501 72.1935 71.9613 71.826 72.087 71.4682Z" fill="#54201C"/>
<path d="M71.8838 83.4205C71.8838 83.4205 77.009 88.5506 82.1391 82.85L71.8838 83.4205Z" fill="white"/>
<path d="M92.9556 77.6619C93.158 77.466 93.3365 77.2469 93.4875 77.0091C93.5589 76.8977 93.6112 76.7751 93.6422 76.6465C93.6533 76.5874 93.6533 76.5267 93.6422 76.4676C93.6452 76.4097 93.6353 76.3519 93.6132 76.2984C93.6132 76.2452 93.5648 76.2017 93.5407 76.1533C93.5165 76.105 93.4633 76.0711 93.4246 76.0324C93.3838 75.9868 93.3323 75.9519 93.2747 75.9309L93.1152 75.839L92.9266 75.7762C92.868 75.7481 92.8064 75.727 92.7429 75.7133L92.3464 75.6166C92.2963 75.6052 92.2513 75.5778 92.2182 75.5385C92.185 75.4993 92.1656 75.4503 92.1627 75.399C92.1385 74.961 92.1385 74.5219 92.1627 74.0839C92.1823 73.6444 92.2307 73.2067 92.3077 72.7736C92.3797 72.3278 92.5064 71.8925 92.6848 71.4777C92.7771 71.2579 92.8956 71.0501 93.0378 70.8588C93.1855 70.6512 93.3749 70.4766 93.5938 70.3463C93.8241 70.2167 94.0839 70.1484 94.3481 70.1481C94.4206 70.1443 94.4932 70.1443 94.5657 70.1481L94.7253 70.1819C94.84 70.198 94.9521 70.2289 95.0589 70.2738C95.2921 70.3642 95.5025 70.5052 95.6747 70.6866C95.8469 70.868 95.9768 71.0854 96.0549 71.323C96.1963 71.7544 96.2441 72.211 96.1951 72.6623C96.1624 73.0971 96.0746 73.5261 95.934 73.9388C95.9807 73.5149 95.9888 73.0877 95.9582 72.6623C95.9349 72.2556 95.8399 71.8563 95.6778 71.4826C95.6069 71.318 95.5023 71.1702 95.3707 71.0486C95.2391 70.927 95.0835 70.8344 94.9138 70.7766C94.8215 70.7447 94.7258 70.7236 94.6286 70.7138H94.469H94.3626C94.1907 70.718 94.0233 70.7699 93.8791 70.8637C93.5833 71.0827 93.3581 71.3836 93.2312 71.7292C93.08 72.1058 92.965 72.496 92.8879 72.8944C92.7384 73.7181 92.6543 74.5524 92.6365 75.3894L92.4479 75.1573L92.8734 75.2975C92.946 75.324 93.0171 75.3547 93.0862 75.3894L93.2892 75.4909L93.4875 75.6311C93.701 75.7758 93.85 75.9977 93.9033 76.25C93.9202 76.3346 93.9202 76.4217 93.9033 76.5063C93.8934 76.5868 93.8705 76.6651 93.8356 76.7384C93.7754 76.8786 93.692 77.0077 93.589 77.1203C93.4096 77.335 93.1955 77.518 92.9556 77.6619Z" fill="#54201C"/>
<path d="M75.3799 69.5389C75.4078 69.3538 75.4499 69.1712 75.5056 68.9925C75.6495 68.5153 75.8577 68.0598 76.1245 67.6387C76.516 67.012 77.0369 66.4762 77.6524 66.0673C78.0209 65.8252 78.4234 65.6394 78.8467 65.5161C79.2949 65.3911 79.7596 65.3356 80.2247 65.3517C80.6805 65.3816 81.1298 65.4761 81.5592 65.6321C81.7633 65.699 81.9608 65.7848 82.1491 65.8884C82.336 65.977 82.5154 66.0805 82.6858 66.1978C82.8553 66.3 83.0169 66.4148 83.1693 66.5411C83.3158 66.6545 83.4562 66.7756 83.5899 66.9038L83.9526 67.2712L84.262 67.6435C84.4372 67.8588 84.5987 68.0849 84.7455 68.3204C84.8647 68.4973 84.9698 68.6832 85.0598 68.8765C85.1481 69.0412 85.2272 69.2107 85.2967 69.3842C85.2967 69.3842 85.113 69.2826 84.8132 69.0989L84.291 68.7701C84.088 68.6444 83.8704 68.4993 83.6238 68.3591C83.3772 68.2189 83.1403 68.0545 82.8453 67.9095C82.7148 67.8273 82.5697 67.7596 82.4247 67.687C82.2796 67.6145 82.1394 67.5372 81.9895 67.484C81.6944 67.3495 81.3888 67.2395 81.0757 67.1552C80.7726 67.0708 80.4614 67.0189 80.1473 67.0005C79.8429 66.9875 79.538 67.0086 79.2383 67.0633C78.9391 67.1294 78.6463 67.2216 78.3632 67.3389C77.8203 67.5885 77.309 67.9018 76.8401 68.2721C76.4001 68.6009 76.0423 68.9297 75.786 69.1618L75.3799 69.5389Z" fill="#1C171E"/>
<path d="M70.8494 69.3309L70.5013 69.0069C70.2788 68.8038 69.9742 68.5234 69.6068 68.2091C69.2166 67.8688 68.8012 67.5584 68.3641 67.2808C68.139 67.1424 67.9029 67.0227 67.6582 66.923C67.1998 66.7325 66.7024 66.6546 66.2077 66.6957L65.8305 66.7489C65.7048 66.7876 65.5791 66.8069 65.4534 66.8456C65.2068 66.9181 64.9699 67.0197 64.7184 67.1164C64.467 67.2131 64.2349 67.3243 64.0464 67.4452C63.616 67.6579 63.2486 67.8658 62.9875 68.0109C62.848 68.0925 62.7044 68.1667 62.5571 68.2333C62.6125 68.0819 62.6754 67.9335 62.7457 67.7885C62.8218 67.6197 62.9124 67.458 63.0165 67.3049C63.1383 67.0955 63.2774 66.8965 63.4323 66.7102C63.6161 66.4814 63.82 66.2694 64.0415 66.0768C64.3009 65.8559 64.5829 65.6631 64.8828 65.5014C65.223 65.3202 65.5879 65.1898 65.9659 65.1146C66.3741 65.0468 66.7907 65.0468 67.1989 65.1146C67.6015 65.1841 67.9912 65.3145 68.3545 65.5014C68.6885 65.677 68.9974 65.8966 69.2731 66.1542C69.73 66.5863 70.1051 67.0973 70.3804 67.6627C70.5648 68.0501 70.7043 68.4573 70.7962 68.8764C70.827 69.0261 70.8448 69.1781 70.8494 69.3309Z" fill="#1C171E"/>
<path d="M66.5654 96.9058C66.5654 96.9058 63.6643 112.228 74.9205 113.427C89.1648 114.946 92.9652 96.5045 92.9652 96.5045C92.9652 96.5045 101.132 90.2188 107.016 97.4715C112.9 104.724 105.121 135.645 99.2316 143.047L54.9804 140.2C54.9804 140.2 44.9185 92.9168 66.5654 96.9058Z" fill="#FFA65B"/>
<path d="M107.016 97.4762C105.222 95.2762 103.216 94.3333 101.296 94.0916C100.566 99.3812 96.2433 104.134 92.5928 107.63C87.9849 112.011 82.8451 115.584 76.9172 117.953C69.181 121.047 61.029 122.45 52.8286 123.596C53.181 129.182 53.9062 134.739 54.9996 140.228L99.2507 143.076C105.121 135.65 112.905 104.69 107.016 97.4762Z" fill="#EF924D"/>
<path d="M108.989 103.191L109.071 105.793V108.404L108.979 111.01L108.795 113.611L108.525 116.208L108.162 118.794L107.678 121.362L107.142 123.91L106.494 126.444L105.764 128.948L104.942 131.429L104.042 133.885L103.075 136.302L102.012 138.686L100.871 141.041L99.6569 143.357L99.5795 143.497H99.4151C95.7146 143.207 92.0077 142.904 88.2943 142.588L77.1977 141.674L71.6518 141.273L66.0962 140.944L60.5358 140.727L54.9754 140.64H54.7627L54.7337 140.427C54.2985 137.231 53.7666 134.04 53.3363 130.839C52.906 127.638 52.4901 124.418 52.3258 121.168C52.2822 120.361 52.2532 119.549 52.2436 118.751C52.2339 117.953 52.2436 117.131 52.2436 116.333C52.2436 115.535 52.3258 114.718 52.3934 113.916L52.5192 112.707L52.6787 111.503L52.877 110.304L53.1139 109.114L53.3992 107.935L53.7231 106.765L54.0906 105.609L54.5016 104.468L54.9851 103.346L55.4686 102.244L54.9851 103.351L54.5499 104.482L54.1583 105.628L53.8101 106.789L53.5055 107.959L53.2444 109.139L53.0268 110.328L52.8528 111.527L52.7126 112.726L52.611 113.93C52.5578 114.738 52.524 115.54 52.5047 116.348C52.4853 117.155 52.5047 117.958 52.5047 118.765C52.5047 119.573 52.5627 120.375 52.611 121.183C52.8141 124.403 53.2348 127.604 53.7134 130.795C54.1921 133.986 54.753 137.173 55.193 140.383L54.9464 140.17L60.5213 140.238L66.0914 140.436L71.6566 140.746L77.2122 141.133C80.9159 141.423 84.6228 141.735 88.333 142.071C92.0432 142.406 95.7404 142.728 99.4248 143.038L99.1879 143.168L100.401 140.872L101.543 138.536L102.616 136.167L103.617 133.749L104.54 131.332L105.377 128.871L106.131 126.381L106.798 123.871L107.379 121.333L107.862 118.78L108.273 116.212L108.592 113.626L108.819 111.034L108.955 108.433L109.008 105.831L108.989 103.191Z" fill="#DD7128"/>
<path d="M32.4776 102.795C32.4776 102.795 0.285273 101.369 0 69.7564C0 69.7564 32.7629 69.7564 32.4776 102.795Z" fill="#5D8584"/>
<path d="M35.3256 80.0022C35.3256 80.0022 15.956 65.7579 24.785 39.5514C24.785 39.5514 47.2877 52.35 35.3256 80.0022Z" fill="#5D8584"/>
<path d="M42.4475 86.5537C42.4475 86.5537 33.048 56.6436 51.847 37.274C51.847 37.274 63.814 58.6357 42.4475 86.5537Z" fill="#5D8584"/>
<path d="M45.0104 105.357C45.0104 105.357 40.7362 82.2842 60.9664 79.4315C60.9615 79.4267 60.1106 101.083 45.0104 105.357Z" fill="#5D8584"/>
<path d="M7.68799 75.4474C7.68799 75.4474 37.3129 91.6838 39.3098 130.423C39.3098 130.423 40.1656 81.1432 29.0545 50.3773" stroke="#396666" stroke-width="2.36" stroke-linecap="round" stroke-linejoin="round"/>
<path d="M48.9991 49.5213C48.9991 49.5213 38.1732 99.6568 41.3064 125.868C41.3064 125.868 39.8849 104.787 54.6949 89.4015" stroke="#396666" stroke-width="2.36" stroke-linecap="round" stroke-linejoin="round"/>
<path d="M24.5239 116.773L29.1173 146.471H55.0336L59.6222 115.211L24.5239 116.773Z" fill="#FC6A5A"/>
<path d="M58.1569 125.206L59.6075 115.211L24.5044 116.773L25.631 124.026C36.481 124.582 47.3359 124.945 58.1569 125.206Z" fill="#EA4134"/>
<path d="M62.5765 111.145H19.2778V119.273H62.5765V111.145Z" fill="#FC6A5A"/>
<path d="M103.979 116.469C103.979 116.469 93.1536 150.934 86.8872 153.501C80.6209 156.069 56.9771 134.697 56.9771 134.697C56.9771 134.697 32.608 140.156 52.4853 133.44C52.4853 133.44 31.6217 136.694 51.847 131.279C51.847 131.279 35.3254 133.561 51.5617 129.001C51.5617 129.001 32.1922 129.572 57.2624 126.154C57.2624 126.154 45.5807 115.613 59.825 125.868L81.4719 138.415C81.4719 138.415 91.1422 101.098 95.1456 99.6715C99.1491 98.2451 103.979 116.469 103.979 116.469Z" fill="#965450"/>
<path d="M86.4668 121.492C89.5947 123.755 93.0497 125.528 96.7125 126.748C97.8487 127.12 98.9898 127.444 100.141 127.715C102.418 121.429 103.98 116.449 103.98 116.449C103.98 116.449 99.1446 98.2159 95.1459 99.6375C93.0281 100.397 89.3002 111.29 86.2734 121.328L86.4668 121.492Z" fill="#76413B"/>
<path d="M88.1205 114.757L81.6028 138.449C81.5983 138.466 81.5905 138.482 81.5797 138.496C81.569 138.51 81.5555 138.522 81.5401 138.53C81.5248 138.539 81.5079 138.544 81.4904 138.546C81.4729 138.548 81.4552 138.546 81.4384 138.541H81.4094L59.7141 126.057C58.6987 125.331 57.6785 124.606 56.6486 123.905C55.6188 123.204 54.584 122.503 53.5106 121.913C53.3753 121.84 53.2399 121.773 53.1093 121.715C53.0483 121.687 52.9853 121.665 52.9208 121.647H52.8724C52.8724 121.647 52.8724 121.647 52.9208 121.647C52.9664 121.622 53.0009 121.58 53.0175 121.531C53.0175 121.454 53.0175 121.478 53.0175 121.492C53.0267 121.516 53.0381 121.539 53.0513 121.56C53.0866 121.62 53.1253 121.678 53.1673 121.734C53.2544 121.85 53.3511 121.966 53.4478 122.082C53.8491 122.542 54.2843 122.986 54.7291 123.422C55.6139 124.297 56.5278 125.148 57.4464 125.984C57.4719 126.009 57.4921 126.038 57.506 126.07C57.5198 126.103 57.5269 126.138 57.5269 126.173C57.5269 126.208 57.5198 126.243 57.506 126.275C57.4921 126.308 57.4719 126.337 57.4464 126.361C57.4055 126.408 57.3485 126.437 57.2869 126.444C55.6043 126.676 53.9249 126.919 52.2487 127.174C50.5757 127.43 48.8979 127.701 47.2443 128.029C46.8285 128.112 46.4175 128.204 46.0113 128.3C45.6108 128.386 45.2179 128.504 44.8364 128.653C44.7726 128.677 44.7124 128.71 44.6575 128.75C44.6575 128.75 44.6575 128.75 44.6914 128.677C44.696 128.649 44.6945 128.62 44.687 128.593C44.6795 128.565 44.6662 128.54 44.6478 128.518C44.6188 128.484 44.6478 128.518 44.6768 128.518C44.8566 128.573 45.0411 128.612 45.2281 128.634C45.6342 128.687 46.0549 128.711 46.4755 128.731C48.1581 128.803 49.8601 128.779 51.5427 128.731C51.6114 128.731 51.6776 128.757 51.7295 128.802C51.7813 128.847 51.8155 128.909 51.826 128.977C51.8364 129.044 51.8224 129.114 51.7865 129.172C51.7506 129.231 51.695 129.275 51.6298 129.296C50.4113 129.64 49.2122 129.993 47.9938 130.375C47.3942 130.568 46.7946 130.766 46.2096 130.984C45.9146 131.09 45.6245 131.206 45.3441 131.332C45.2071 131.391 45.0731 131.457 44.9428 131.53C44.8824 131.562 44.8243 131.597 44.7687 131.636C44.7204 131.665 44.672 131.723 44.6914 131.699C44.7046 131.672 44.7115 131.642 44.7115 131.612C44.7115 131.582 44.7046 131.552 44.6914 131.525C44.6527 131.467 44.643 131.477 44.6527 131.482C44.7028 131.5 44.7546 131.513 44.8074 131.52C44.9496 131.545 45.0934 131.56 45.2377 131.564C45.5423 131.564 45.8518 131.564 46.1661 131.564C46.7898 131.564 47.4184 131.491 48.0421 131.438C49.2992 131.322 50.5564 131.172 51.8087 131.003C51.8482 130.997 51.8885 130.999 51.9272 131.009C51.966 131.019 52.0023 131.037 52.0339 131.061C52.0656 131.085 52.0919 131.116 52.1114 131.151C52.1309 131.186 52.143 131.224 52.1471 131.264C52.1567 131.337 52.1395 131.411 52.0986 131.473C52.0577 131.534 51.9959 131.579 51.9247 131.598C50.4016 132.009 48.8834 132.425 47.3749 132.874C46.6206 133.102 45.8663 133.334 45.1265 133.585C44.759 133.711 44.3916 133.841 44.0338 133.986C43.8597 134.059 43.6808 134.136 43.5503 134.218C43.4797 134.256 43.4118 134.298 43.3472 134.344C43.3085 134.392 43.3472 134.344 43.3472 134.344C43.3614 134.314 43.3688 134.281 43.3688 134.247C43.3688 134.214 43.3614 134.181 43.3472 134.151C43.3085 134.083 43.2892 134.078 43.2795 134.073C43.2698 134.069 43.3665 134.098 43.4439 134.107H43.7147H44.2852C44.6672 134.107 45.0588 134.069 45.4505 134.035C46.2289 133.972 47.0122 133.885 47.7955 133.793C49.3573 133.609 50.919 133.392 52.4759 133.155C52.5487 133.148 52.6216 133.167 52.6813 133.209C52.741 133.251 52.7836 133.314 52.8012 133.385C52.8188 133.456 52.8102 133.53 52.7772 133.596C52.7441 133.661 52.6886 133.712 52.621 133.74C50.9625 134.301 49.3041 134.871 47.6746 135.495C47.2685 135.65 46.8623 135.814 46.4658 135.978C46.0694 136.143 45.6681 136.327 45.3103 136.525C45.2246 136.572 45.1422 136.626 45.0637 136.684C45.0367 136.702 45.0123 136.723 44.9911 136.747C44.9911 136.747 44.9911 136.747 44.9911 136.709C44.9983 136.675 44.9977 136.64 44.9893 136.606C44.9809 136.573 44.965 136.542 44.9428 136.515C44.8751 136.452 44.9041 136.486 44.9428 136.486C44.983 136.49 45.0234 136.49 45.0637 136.486H45.3634C45.7793 136.486 46.2144 136.428 46.6399 136.375C48.3661 136.148 50.0874 135.824 51.8038 135.49C53.5203 135.156 55.2368 134.789 56.9436 134.417C56.9874 134.406 57.0333 134.406 57.0771 134.417C57.121 134.428 57.1615 134.449 57.195 134.48C59.5691 136.607 62.006 138.676 64.4816 140.693C66.9571 142.709 69.4811 144.667 72.063 146.538C74.629 148.431 77.3239 150.142 80.1281 151.659C81.5133 152.419 82.9927 152.993 84.528 153.366C85.2688 153.557 86.0474 153.543 86.7812 153.327C87.4806 153 88.0971 152.519 88.5847 151.92C89.6059 150.707 90.5063 149.396 91.273 148.008C92.0612 146.625 92.7913 145.204 93.4779 143.763C94.8607 140.886 96.1178 137.961 97.3121 134.982C99.6958 129.05 101.847 123.025 103.849 116.952C101.915 123.049 99.8312 129.098 97.5152 135.065C96.3499 138.043 95.1315 141.002 93.768 143.903C93.0862 145.354 92.3658 146.78 91.5776 148.182C90.8099 149.6 89.9029 150.938 88.87 152.176C88.3486 152.823 87.6874 153.344 86.9359 153.699C86.5365 153.845 86.1133 153.914 85.6885 153.902C85.2741 153.901 84.861 153.857 84.4555 153.772C82.8786 153.402 81.3582 152.823 79.9346 152.05C78.4841 151.325 77.1206 150.498 75.7619 149.633C74.4032 148.767 73.0881 147.868 71.7826 146.94C69.1668 145.083 66.638 143.12 64.1479 141.104C61.6578 139.087 59.2209 137.023 56.8275 134.886L57.0741 134.953C55.3625 135.337 53.646 135.7 51.9247 136.041C50.1986 136.38 48.4773 136.713 46.7221 136.945C46.2779 137.007 45.8309 137.045 45.3828 137.062C45.2636 137.069 45.1441 137.069 45.025 137.062L44.8219 137.032C44.7057 137.011 44.5992 136.953 44.5173 136.868C44.4785 136.821 44.4513 136.765 44.4379 136.706C44.4244 136.646 44.4251 136.584 44.4399 136.525C44.4618 136.459 44.4944 136.397 44.5366 136.341C44.5878 136.284 44.6445 136.232 44.7059 136.186C44.8041 136.113 44.9075 136.047 45.0153 135.988C45.4099 135.771 45.8167 135.577 46.2338 135.408C46.6399 135.234 47.0509 135.069 47.4619 134.924C49.1058 134.291 50.7643 133.716 52.4276 133.15L52.5678 133.74C51.0077 133.982 49.4411 134.199 47.868 134.392C47.0799 134.489 46.2918 134.576 45.4988 134.639C45.1023 134.673 44.7059 134.702 44.3045 134.716C44.1015 134.716 43.8984 134.716 43.6905 134.716C43.5841 134.716 43.4777 134.716 43.3665 134.692C43.2269 134.681 43.0907 134.643 42.9652 134.581C42.8901 134.537 42.8283 134.474 42.7863 134.397C42.7624 134.345 42.75 134.288 42.75 134.231C42.75 134.173 42.7624 134.116 42.7863 134.064C42.8296 133.972 42.8943 133.893 42.9749 133.832C43.0695 133.761 43.1697 133.698 43.2747 133.643C43.4681 133.542 43.6518 133.464 43.8404 133.387C44.2175 133.232 44.5947 133.102 44.9718 132.971C45.7261 132.715 46.4852 132.487 47.2443 132.26C48.7625 131.811 50.2856 131.395 51.8135 130.989L51.9344 131.578C50.6708 131.746 49.4072 131.89 48.1436 132.009C47.5054 132.067 46.872 132.11 46.2096 132.134C45.8856 132.134 45.5665 132.134 45.2426 132.134C45.0708 132.128 44.8996 132.11 44.73 132.081C44.6269 132.062 44.5263 132.031 44.4303 131.989C44.3396 131.949 44.2636 131.881 44.2127 131.796C44.1779 131.735 44.1596 131.666 44.1596 131.595C44.1596 131.525 44.1779 131.456 44.2127 131.395C44.2788 131.289 44.366 131.199 44.4689 131.129C44.543 131.077 44.6205 131.03 44.701 130.989C44.8509 130.906 45.0008 130.834 45.1507 130.766C45.4505 130.636 45.7502 130.52 46.05 130.408C46.6496 130.186 47.2588 129.988 47.8632 129.794C49.0768 129.412 50.2808 129.059 51.5186 128.721L51.6056 129.282C49.8988 129.32 48.221 129.34 46.49 129.282C46.0645 129.282 45.6342 129.233 45.199 129.175C44.965 129.15 44.7346 129.098 44.5125 129.021C44.418 128.989 44.3332 128.934 44.2659 128.861C44.2301 128.82 44.2041 128.771 44.1899 128.718C44.1757 128.665 44.1735 128.61 44.1837 128.556C44.1976 128.476 44.2364 128.401 44.2949 128.344C44.4002 128.247 44.5234 128.171 44.6575 128.121C45.0698 127.963 45.4932 127.835 45.9243 127.739C46.3401 127.638 46.7608 127.551 47.1766 127.469C48.8544 127.14 50.5322 126.874 52.21 126.618C53.8878 126.361 55.5946 126.134 57.2579 125.897L57.1176 126.381C56.1893 125.535 55.2755 124.679 54.3858 123.789C53.9458 123.344 53.5058 122.895 53.09 122.411C52.9836 122.285 52.8821 122.164 52.7854 122.029C52.6887 121.894 52.6887 121.889 52.6403 121.807C52.6166 121.763 52.5956 121.718 52.5775 121.671C52.5373 121.587 52.5271 121.491 52.5484 121.4C52.5613 121.357 52.583 121.316 52.6121 121.281C52.6412 121.247 52.6771 121.218 52.7177 121.197C52.7688 121.173 52.8253 121.161 52.8821 121.164C52.9424 121.165 53.0024 121.173 53.061 121.188C53.1479 121.214 53.2335 121.245 53.3172 121.28C53.472 121.347 53.617 121.42 53.7572 121.497C54.8693 122.121 55.8944 122.832 56.9291 123.542C57.9638 124.253 58.9743 124.993 59.9897 125.718L81.5931 138.333L81.3997 138.41L88.1205 114.757Z" fill="#54201C"/>
<path d="M84.3247 116.749C84.3247 116.749 90.6104 91.6839 102.268 93.9612C113.925 96.2386 105.401 119.031 103.409 124.157C96.4257 123.761 89.7462 121.169 84.3247 116.749Z" fill="#FFA65B"/>
<path d="M102.268 93.9612L103.293 94.2078L104.26 94.5995C104.56 94.7832 104.879 94.9428 105.164 95.1507L105.575 95.4891L105.783 95.6535L105.962 95.8518C106.215 96.1015 106.444 96.3752 106.644 96.6689L106.948 97.1089L107.195 97.5924C107.365 97.9026 107.508 98.226 107.625 98.5595C107.755 98.8889 107.863 99.2265 107.949 99.57C108.132 100.257 108.26 100.957 108.331 101.664C108.38 102.017 108.389 102.37 108.414 102.722C108.438 103.075 108.443 103.428 108.443 103.781C108.443 104.134 108.443 104.487 108.443 104.84C108.443 105.193 108.443 105.551 108.385 105.899C108.341 106.605 108.259 107.306 108.177 108.007C108.094 108.708 107.978 109.405 107.848 110.101C107.717 110.797 107.587 111.484 107.432 112.17C107.127 113.548 106.77 114.912 106.378 116.266C105.595 118.973 104.681 121.638 103.665 124.263L103.598 124.447H103.424C102.543 124.423 101.665 124.347 100.793 124.22C100.363 124.147 99.9279 124.089 99.5024 124.002C99.0769 123.915 98.6417 123.847 98.2162 123.736C97.7907 123.625 97.3653 123.547 96.9446 123.422C96.5239 123.296 96.1033 123.19 95.6826 123.064L94.44 122.653C94.029 122.513 93.6229 122.343 93.2119 122.194C92.8009 122.044 92.4044 121.865 92.0031 121.686C91.6018 121.507 91.2005 121.347 90.8137 121.144L89.629 120.525C89.2374 120.337 88.8699 120.095 88.488 119.882C88.106 119.67 87.724 119.457 87.371 119.205L86.2831 118.471C85.9157 118.234 85.5772 117.958 85.2339 117.692L84.1992 116.889L84.0977 116.812L84.1315 116.686C84.3007 116.072 84.47 115.468 84.6634 114.864C84.8568 114.259 85.0405 113.66 85.2484 113.06C85.4563 112.46 85.6594 111.866 85.8818 111.276C86.1042 110.686 86.317 110.086 86.5684 109.506L87.3034 107.761C87.4242 107.466 87.5693 107.185 87.6998 106.9L88.106 106.044L88.5121 105.188C88.6572 104.908 88.8119 104.632 88.9618 104.352L89.8756 102.693L89.0295 104.386L88.6088 105.232L88.2269 106.097L87.8497 106.963C87.7288 107.253 87.5886 107.538 87.4774 107.833L86.7957 109.593C86.5587 110.178 86.3798 110.783 86.1623 111.373C85.9447 111.962 85.7513 112.562 85.5627 113.162C85.3741 113.761 85.1856 114.366 85.0115 114.97C84.8374 115.574 84.6682 116.179 84.528 116.783L84.4603 116.585L85.495 117.354C85.8431 117.61 86.1768 117.881 86.5491 118.103L87.6321 118.809C87.9851 119.051 88.3719 119.239 88.7394 119.462C89.1069 119.684 89.4792 119.907 89.8708 120.09L91.0216 120.671C91.4035 120.869 91.8097 121.019 92.2013 121.198C92.593 121.376 92.9895 121.546 93.3956 121.681C93.8018 121.816 94.1982 121.991 94.6044 122.131L95.8325 122.527C96.2483 122.653 96.6642 122.754 97.0751 122.875C97.4861 122.996 97.9116 123.074 98.3323 123.175C98.7529 123.277 99.1736 123.344 99.5943 123.431C100.015 123.518 100.445 123.567 100.866 123.634C101.717 123.741 102.582 123.833 103.419 123.857L103.158 124.036C104.183 121.43 105.092 118.785 105.899 116.096C106.296 114.757 106.658 113.403 106.973 112.04C107.127 111.358 107.272 110.676 107.408 109.99C107.543 109.303 107.659 108.617 107.77 107.925C107.882 107.234 107.954 106.542 108.012 105.846C108.056 105.498 108.065 105.15 108.085 104.802C108.104 104.453 108.123 104.105 108.123 103.757C108.123 103.409 108.123 103.061 108.123 102.713C108.123 102.365 108.123 102.017 108.061 101.668C108.002 100.976 107.892 100.289 107.732 99.6135C107.658 99.2741 107.563 98.9398 107.447 98.6126C107.341 98.2808 107.21 97.9575 107.055 97.6456L106.823 97.1621L106.542 96.7269C106.357 96.4341 106.143 96.1603 105.904 95.9098L105.73 95.7116L105.532 95.5423L105.14 95.2039C104.869 94.9863 104.555 94.8267 104.265 94.6333C103.975 94.4399 103.627 94.3432 103.298 94.2078L102.268 93.9612Z" fill="#DD7128"/>
<path d="M21.8889 129.814C21.8889 129.814 19.3117 124.152 20.9218 122.798C22.5319 121.444 37.1824 122.701 24.6594 124.766C24.6594 124.766 46.5529 123.451 26.0616 127.324C26.0616 127.324 43.4101 125.612 27.1011 129.171C27.1011 129.171 40.9393 128.581 26.8159 131.047L27.488 135.398C27.488 135.398 26.1728 136.965 21.8889 129.814Z" fill="#965450"/>
<path d="M21.8885 129.814C21.5026 128.994 21.1651 128.153 20.8779 127.295C20.5781 126.426 20.3833 125.526 20.2977 124.611C20.2529 124.139 20.3158 123.663 20.4814 123.219C20.5814 122.981 20.7497 122.779 20.9649 122.638C21.1764 122.516 21.4044 122.425 21.6419 122.368C22.5443 122.173 23.465 122.076 24.3882 122.077C25.3065 122.06 26.2249 122.094 27.1394 122.179C27.6229 122.227 28.0581 122.285 28.5126 122.377C28.7449 122.423 28.9742 122.482 29.1992 122.556C29.3198 122.599 29.4377 122.649 29.5522 122.706C29.6993 122.78 29.8194 122.898 29.8954 123.044C29.9181 123.098 29.9297 123.156 29.9297 123.214C29.9297 123.272 29.9181 123.329 29.8954 123.383C29.8612 123.467 29.8102 123.542 29.7456 123.605C29.6464 123.698 29.5359 123.778 29.4168 123.842C29.2037 123.954 28.9822 124.05 28.7544 124.128C28.3144 124.282 27.8695 124.403 27.4199 124.514C26.5254 124.742 25.626 124.896 24.7267 125.056L24.6638 124.514C26.2836 124.418 27.8985 124.345 29.499 124.306C30.3113 124.306 31.1187 124.273 31.9165 124.306C32.3227 124.306 32.7288 124.306 33.1398 124.345C33.5601 124.362 33.9786 124.409 34.3921 124.485C34.5111 124.508 34.6276 124.542 34.7402 124.587L34.837 124.635C34.8795 124.663 34.9199 124.693 34.9578 124.727C35.0132 124.779 35.0548 124.844 35.0787 124.916C35.1065 125.002 35.1065 125.095 35.0787 125.182C35.0079 125.339 34.8849 125.467 34.7306 125.544C34.6242 125.607 34.5227 125.651 34.4211 125.699C34.0362 125.857 33.6422 125.993 33.2414 126.105C32.4532 126.337 31.6603 126.521 30.8673 126.7C29.2862 127.053 27.6955 127.357 26.0999 127.667L26.0177 127.087C27.3038 126.971 28.59 126.869 29.8858 126.792C30.5288 126.753 31.1768 126.719 31.8198 126.705C32.1438 126.705 32.4677 126.705 32.7869 126.705C33.1235 126.703 33.4597 126.727 33.7926 126.777C33.8945 126.792 33.9938 126.821 34.0875 126.864C34.1383 126.884 34.1845 126.914 34.2235 126.953C34.2625 126.991 34.2936 127.036 34.3148 127.087C34.3362 127.152 34.3389 127.222 34.3227 127.288C34.3065 127.355 34.2719 127.416 34.2229 127.464C34.0742 127.596 33.902 127.7 33.7152 127.768C33.3961 127.894 33.0866 127.991 32.7772 128.088C32.1486 128.271 31.5249 128.431 30.8963 128.571C29.6392 128.871 28.382 129.142 27.1201 129.407L27.0717 129.021C28.1355 128.992 29.1992 128.977 30.2677 128.992C30.7996 128.992 31.3363 129.016 31.8682 129.059C32.1373 129.077 32.4052 129.11 32.6708 129.156C32.8137 129.177 32.9534 129.216 33.0866 129.272C33.1316 129.294 33.1725 129.323 33.2075 129.359C33.2342 129.387 33.2524 129.422 33.2601 129.459C33.2678 129.497 33.2647 129.536 33.251 129.572C33.2078 129.655 33.138 129.721 33.0528 129.76C32.8075 129.883 32.5498 129.979 32.284 130.046C32.0229 130.123 31.7666 130.181 31.5055 130.244C30.9834 130.365 30.466 130.466 29.939 130.568C28.8946 130.766 27.8453 130.931 26.7961 131.09C27.8357 130.887 28.8801 130.669 29.9148 130.442C30.4321 130.326 30.9495 130.205 31.462 130.07C31.7183 130.002 31.9746 129.93 32.2211 129.847C32.4691 129.778 32.709 129.682 32.9367 129.562C32.9717 129.542 33.0028 129.516 33.0286 129.485C33.0286 129.485 33.0286 129.528 33.0286 129.519L32.9851 129.495C32.8707 129.454 32.7524 129.424 32.6321 129.407C32.3759 129.374 32.1148 129.354 31.8488 129.34C31.3266 129.34 30.7948 129.316 30.2677 129.34C29.2089 129.34 28.1451 129.378 27.0862 129.432C27.0397 129.43 26.9952 129.412 26.9607 129.38C26.9261 129.349 26.9037 129.307 26.8974 129.261C26.891 129.214 26.9011 129.167 26.926 129.128C26.9508 129.089 26.9887 129.059 27.033 129.045C28.2853 128.755 29.5376 128.46 30.7754 128.136C31.3992 127.971 32.0132 127.802 32.6225 127.609C32.9222 127.512 33.222 127.411 33.5025 127.29C33.6166 127.244 33.7252 127.186 33.8264 127.116C33.8264 127.116 33.7684 127.154 33.8264 127.275C33.8844 127.396 33.8893 127.348 33.8699 127.348C33.8169 127.328 33.7617 127.315 33.7055 127.309C33.4013 127.265 33.0942 127.244 32.7869 127.246H31.8198C31.1816 127.246 30.5434 127.299 29.8858 127.343C28.6093 127.43 27.328 127.536 26.0515 127.667C25.9792 127.669 25.9086 127.644 25.8534 127.597C25.7981 127.55 25.762 127.485 25.7518 127.413C25.7417 127.342 25.7582 127.269 25.7983 127.209C25.8384 127.148 25.8993 127.105 25.9693 127.087C27.5552 126.782 29.1363 126.463 30.7077 126.12C31.4959 125.936 32.2743 125.742 33.0431 125.53C33.4204 125.424 33.7917 125.299 34.1552 125.153C34.2365 125.119 34.3156 125.08 34.3921 125.037C34.4598 125.012 34.5275 124.921 34.484 124.993C34.4405 125.066 34.4598 125.075 34.484 125.114C34.4854 125.127 34.4895 125.14 34.4962 125.152C34.5029 125.163 34.5119 125.174 34.5227 125.182H34.4888C34.4124 125.15 34.3331 125.125 34.2519 125.109C33.8701 125.04 33.484 124.996 33.0963 124.979C32.6998 124.95 32.2985 124.94 31.8972 124.93C31.0946 124.93 30.2871 124.93 29.4796 124.93C27.8695 124.964 26.2546 125.027 24.6445 125.109C24.6089 125.111 24.5733 125.106 24.5397 125.094C24.5061 125.082 24.4752 125.064 24.4487 125.04C24.4222 125.016 24.4006 124.988 24.3853 124.955C24.3699 124.923 24.3611 124.888 24.3592 124.853C24.358 124.787 24.3802 124.722 24.4217 124.671C24.4633 124.62 24.5216 124.585 24.5865 124.572C25.481 124.427 26.3755 124.263 27.2555 124.089C27.6906 123.987 28.1306 123.876 28.5464 123.741C28.7508 123.674 28.9496 123.592 29.1412 123.494C29.2236 123.455 29.3001 123.405 29.3684 123.344C29.3886 123.329 29.4051 123.309 29.4168 123.286C29.3754 123.236 29.3244 123.195 29.2669 123.165C29.1785 123.118 29.0863 123.077 28.9913 123.044C28.7866 122.969 28.5765 122.909 28.3627 122.866C27.9251 122.77 27.4829 122.698 27.0379 122.648C26.1404 122.548 25.2381 122.496 24.335 122.493C23.4369 122.477 22.5395 122.552 21.6564 122.716C21.4497 122.755 21.2495 122.824 21.0617 122.919C20.8838 123.036 20.7456 123.205 20.6652 123.402C20.4991 123.808 20.4296 124.247 20.4621 124.684C20.5148 125.586 20.6772 126.479 20.9456 127.343C21.2167 128.182 21.5314 129.007 21.8885 129.814Z" fill="#54201C"/>
</g>
<defs>
<clipPath id="clip0_1_4868">
<rect width="345.707" height="216" fill="white"/>
</clipPath>
</defs>
</svg>
