<svg width="34" height="34" viewBox="0 0 34 34" fill="none" xmlns="http://www.w3.org/2000/svg">
<path d="M16.9999 0C7.61596 0 0 7.61596 0 16.9999C0 26.3839 7.61596 33.9998 16.9999 33.9998C26.3839 33.9998 33.9998 26.3839 33.9998 16.9999C33.9998 7.61596 26.3839 0 16.9999 0ZM23.7999 18.6999H18.6999V23.7999C18.6999 24.7349 17.9349 25.4999 16.9999 25.4999C16.0649 25.4999 15.2999 24.7349 15.2999 23.7999V18.6999H10.2C9.26496 18.6999 8.49996 17.9349 8.49996 16.9999C8.49996 16.0649 9.26496 15.2999 10.2 15.2999H15.2999V10.2C15.2999 9.26496 16.0649 8.49996 16.9999 8.49996C17.9349 8.49996 18.6999 9.26496 18.6999 10.2V15.2999H23.7999C24.7349 15.2999 25.4999 16.0649 25.4999 16.9999C25.4999 17.9349 24.7349 18.6999 23.7999 18.6999Z" fill="#0096C8"/>
</svg>
